<svg width="86" height="86" viewBox="0 0 86 86" fill="none" xmlns="http://www.w3.org/2000/svg">
<circle cx="42.7257" cy="42.7257" r="42.7257" fill="#3F7E77"/>
<path d="M29.1774 40.507H38.3471L43.2597 44.5244L48.1722 40.507H57.342C60.7736 40.507 63.5555 37.7251 63.5555 34.2934C63.5555 30.9141 60.8574 28.167 57.4982 28.0838C56.6176 25.1318 53.8835 22.979 50.6452 22.979C49.3956 20.1408 46.5599 18.1582 43.2597 18.1582C39.9595 18.1582 37.1238 20.1408 35.8742 22.979C32.6359 22.979 29.9018 25.1318 29.0212 28.0838C25.662 28.167 22.9639 30.9142 22.9639 34.2934C22.9639 37.7251 25.7457 40.507 29.1774 40.507Z" fill="#F8F5E6"/>
<path d="M30.6972 56.3613C29.5283 57.427 27.9748 58.0779 26.272 58.0779C24.5693 58.0779 23.0158 57.4271 21.8468 56.3613C20.25 57.654 19.2266 59.6284 19.2266 61.8383V66.2258H33.3175V61.8383C33.3175 59.6284 32.294 57.654 30.6972 56.3613Z" fill="#F8F5E6"/>
<path d="M64.6727 56.3613C63.5038 57.427 61.9503 58.0779 60.2475 58.0779C58.5447 58.0779 56.9913 57.4271 55.8224 56.3613C54.2255 57.6541 53.2021 59.6284 53.2021 61.8383V66.2258H67.293V61.8383C67.293 59.6284 66.2695 57.654 64.6727 56.3613Z" fill="#F8F5E6"/>
<path d="M26.2719 55.2605C28.3475 55.2605 30.0301 53.5779 30.0301 51.5023C30.0301 49.4267 28.3475 47.7441 26.2719 47.7441C24.1963 47.7441 22.5137 49.4267 22.5137 51.5023C22.5137 53.5779 24.1963 55.2605 26.2719 55.2605Z" fill="#F8F5E6"/>
<path d="M60.2474 55.2605C62.323 55.2605 64.0056 53.5779 64.0056 51.5023C64.0056 49.4267 62.323 47.7441 60.2474 47.7441C58.1719 47.7441 56.4893 49.4267 56.4893 51.5023C56.4893 53.5779 58.1719 55.2605 60.2474 55.2605Z" fill="#F8F5E6"/>
<path d="M47.6846 56.3602C46.5157 57.4259 44.9622 58.0767 43.2595 58.0767C39.7562 58.0767 36.8846 55.3222 36.6955 51.8652C35.2763 52.787 34.335 54.3851 34.335 56.1998C34.335 57.8471 35.109 59.3578 36.3806 60.319C36.2726 60.8083 36.2141 61.3158 36.2141 61.8371V66.2247H50.305V61.8371C50.305 59.6273 49.2815 57.6529 47.6846 56.3602Z" fill="#F8F5E6"/>
<path d="M43.8529 55.2138C45.9015 54.8817 47.293 52.9518 46.9609 50.9032C46.6288 48.8546 44.6989 47.4631 42.6503 47.7952C40.6016 48.1273 39.2101 50.0572 39.5422 52.1058C39.8743 54.1544 41.8043 55.5459 43.8529 55.2138Z" fill="#F8F5E6"/>
</svg>
