<svg width="87" height="86" viewBox="0 0 87 86" fill="none" xmlns="http://www.w3.org/2000/svg">
<circle cx="43.3927" cy="42.7257" r="42.7257" fill="#3F7E77"/>
<path d="M24.8591 22.4316C24.8576 22.4316 24.856 22.4316 24.8546 22.4316C24.3494 22.4316 23.8744 22.6285 23.5156 22.9864C23.1529 23.3482 22.9531 23.8299 22.9531 24.3428V53.0002C22.9531 54.0511 23.8114 54.9081 24.8666 54.9108C29.3151 54.9214 36.768 55.8486 41.9095 61.229V31.2383C41.9095 30.882 41.8185 30.5474 41.6467 30.2705C37.4269 23.4746 29.3176 22.4421 24.8591 22.4316Z" fill="#F8F5E6"/>
<path d="M63.8331 53.0004V24.3428C63.8331 23.8299 63.6333 23.3482 63.2706 22.9864C62.9119 22.6285 62.4364 22.4316 61.9319 22.4316C61.9302 22.4316 61.9286 22.4316 61.9272 22.4316C57.4688 22.4423 49.3596 23.4748 45.1395 30.2706C44.9678 30.5476 44.877 30.8822 44.877 31.2384V61.229C50.0184 55.8486 57.4714 54.9214 61.9198 54.9108C62.9748 54.9081 63.8331 54.0511 63.8331 53.0004Z" fill="#F8F5E6"/>
<path d="M68.1859 29.041H66.8001V53.0007C66.8001 55.6839 64.614 57.8718 61.9268 57.8784C58.1536 57.8874 51.9321 58.6252 47.5259 62.7955C55.1464 60.9296 63.1798 62.1426 67.7581 63.1859C68.3297 63.3161 68.9204 63.1816 69.3784 62.8165C69.8348 62.4524 70.0967 61.9081 70.0967 61.3238V30.9518C70.0968 29.8982 69.2394 29.041 68.1859 29.041Z" fill="#F8F5E6"/>
<path d="M19.986 53.0007V29.041H18.6002C17.5468 29.041 16.6895 29.8982 16.6895 30.9518V61.3233C16.6895 61.9077 16.9513 62.4518 17.4077 62.816C17.8653 63.1808 18.4555 63.3159 19.028 63.1853C23.6063 62.1418 31.6399 60.9291 39.26 62.7949C34.854 58.6249 28.6325 57.8872 24.8593 57.8782C22.1722 57.8718 19.986 55.6839 19.986 53.0007Z" fill="#F8F5E6"/>
</svg>
