<svg width="86" height="86" viewBox="0 0 86 86" fill="none" xmlns="http://www.w3.org/2000/svg">
<circle cx="42.7257" cy="42.7257" r="42.7257" fill="#3F7E77"/>
<path d="M51.0706 19.3594H47.4456C46.758 17.4167 44.9021 16.0215 42.7257 16.0215C40.5494 16.0215 38.6935 17.4167 38.0026 19.3594H34.3809C33.4596 19.3594 32.7119 20.1071 32.7119 21.0284V27.7043C32.7119 28.6256 33.4596 29.3733 34.3809 29.3733H51.0706C51.9919 29.3733 52.7396 28.6256 52.7396 27.7043V21.0284C52.7396 20.1071 51.9919 19.3594 51.0706 19.3594Z" fill="#F8F5E6"/>
<path d="M59.4151 22.6973H56.0772V27.7042C56.0772 30.4647 53.8307 32.7111 51.0703 32.7111H34.3806C31.6201 32.7111 29.3736 30.4647 29.3736 27.7042V22.6973H26.0357C24.1965 22.6973 22.6978 24.196 22.6978 26.0352V66.0905C22.6978 67.9631 24.1631 69.4285 26.0357 69.4285H59.4151C61.2877 69.4285 62.7531 67.9631 62.7531 66.0905V26.0352C62.7531 24.1626 61.2877 22.6973 59.4151 22.6973ZM42.2381 52.2514L35.5622 58.9273C35.2351 59.2511 34.8078 59.4146 34.3806 59.4146C33.9533 59.4146 33.526 59.2511 33.1989 58.9273L29.861 55.5894C29.2101 54.9385 29.2101 53.8803 29.861 53.2294C30.5119 52.5785 31.57 52.5785 32.2209 53.2294L34.3806 55.3857L39.8748 49.8915C40.5257 49.2406 41.5838 49.2406 42.2347 49.8915C42.8856 50.5424 42.889 51.5972 42.2381 52.2514ZM42.2381 38.8996L35.5622 45.5755C35.2351 45.8993 34.8078 46.0629 34.3806 46.0629C33.9533 46.0629 33.526 45.8993 33.1989 45.5755L29.861 42.2376C29.2101 41.5867 29.2101 40.5286 29.861 39.8777C30.5119 39.2268 31.57 39.2268 32.2209 39.8777L34.3806 42.034L39.8748 36.5397C40.5257 35.8888 41.5838 35.8888 42.2347 36.5397C42.8856 37.1906 42.889 38.2454 42.2381 38.8996ZM54.4082 56.0767H47.7323C46.8111 56.0767 46.0634 55.329 46.0634 54.4077C46.0634 53.4864 46.8111 52.7387 47.7323 52.7387H54.4082C55.3295 52.7387 56.0772 53.4864 56.0772 54.4077C56.0772 55.329 55.3295 56.0767 54.4082 56.0767ZM54.4082 42.7249H47.7323C46.8111 42.7249 46.0634 41.9772 46.0634 41.056C46.0634 40.1347 46.8111 39.387 47.7323 39.387H54.4082C55.3295 39.387 56.0772 40.1347 56.0772 41.056C56.0772 41.9772 55.3295 42.7249 54.4082 42.7249Z" fill="#F8F5E6"/>
</svg>
