<svg width="86" height="86" viewBox="0 0 86 86" fill="none" xmlns="http://www.w3.org/2000/svg">
<circle cx="42.7257" cy="42.7257" r="42.7257" fill="#3F7E77"/>
<path d="M42.7258 48.0599L26.7939 43.1562V47.9805V51.346C26.7939 55.1322 33.9293 58.2019 42.7306 58.2019C51.5315 58.2019 58.668 55.1322 58.668 51.346C58.668 51.3162 58.6583 51.2863 58.6577 51.2571V43.1562L42.7258 48.0599Z" fill="#F8F5E6"/>
<path d="M16.022 37.5195L21.7136 39.5555L22.1986 38.5167L24.2896 38.339L24.5877 38.6492L22.7935 39.0746L22.532 39.8486C22.5315 39.8486 18.4791 48.3206 19.0743 52.4651C19.0743 52.4651 21.6038 53.974 24.1322 52.4651L24.8042 41.1335V40.1903L28.5679 39.3413L28.302 39.9959L25.4959 40.9084L26.7937 41.3721L42.7256 46.2757L58.6574 41.3721L69.4291 37.5196L42.7256 27.2461L16.022 37.5195Z" fill="#F8F5E6"/>
</svg>
