<svg width="86" height="86" viewBox="0 0 86 86" fill="none" xmlns="http://www.w3.org/2000/svg">
<circle cx="42.7257" cy="42.7257" r="42.7257" fill="#3F7E77"/>
<path d="M42.7253 39.4302C47.2139 39.4302 50.8525 35.7915 50.8525 31.303C50.8525 26.8145 47.2139 23.1758 42.7253 23.1758C38.2368 23.1758 34.5981 26.8145 34.5981 31.303C34.5981 35.7915 38.2368 39.4302 42.7253 39.4302Z" fill="#F8F5E6"/>
<path d="M58.9799 44.0731C62.1859 44.0731 64.785 41.474 64.785 38.268C64.785 35.0619 62.1859 32.4629 58.9799 32.4629C55.7738 32.4629 53.1748 35.0619 53.1748 38.268C53.1748 41.474 55.7738 44.0731 58.9799 44.0731Z" fill="#F8F5E6"/>
<path d="M26.6361 44.0731C29.8422 44.0731 32.4412 41.474 32.4412 38.268C32.4412 35.0619 29.8422 32.4629 26.6361 32.4629C23.4301 32.4629 20.8311 35.0619 20.8311 38.268C20.8311 41.474 23.4301 44.0731 26.6361 44.0731Z" fill="#F8F5E6"/>
<path d="M42.7252 41.752C34.4029 41.752 27.6318 48.523 27.6318 56.8453C27.6318 57.4861 28.152 58.0063 28.7929 58.0063H56.6574C57.2983 58.0063 57.8185 57.4861 57.8185 56.8453C57.8185 48.523 51.0474 41.752 42.7252 41.752Z" fill="#F8F5E6"/>
<path d="M28.6376 46.6453C27.9271 46.4943 27.2049 46.3945 26.4712 46.3945C20.7102 46.3945 16.022 51.0827 16.022 56.8437C16.022 57.4846 16.5421 58.0048 17.183 58.0048H25.5238C25.3937 57.6403 25.3101 57.2525 25.3101 56.8437C25.3101 53.0333 26.5548 49.5154 28.6376 46.6453Z" fill="#F8F5E6"/>
<path d="M58.9795 46.3945C58.2457 46.3945 57.5235 46.4943 56.813 46.6453C58.8959 49.5154 60.1405 53.0333 60.1405 56.8437C60.1405 57.2525 60.0569 57.6402 59.9269 58.0048H68.2676C68.9085 58.0048 69.4287 57.4846 69.4287 56.8437C69.4287 51.0827 64.7405 46.3945 58.9795 46.3945Z" fill="#F8F5E6"/>
</svg>
