<svg width="86" height="86" viewBox="0 0 86 86" fill="none" xmlns="http://www.w3.org/2000/svg">
<circle cx="42.7257" cy="42.7257" r="42.7257" fill="#3F7E77"/>
<path d="M69.1029 65.3058C67.8957 64.0986 67.2036 62.4274 67.2036 60.7205V56.0787C67.2036 54.1134 66.3342 52.362 64.9783 51.1392V24.9245C64.9783 22.47 62.9824 20.4739 60.5277 20.4739H54.9646C54.3495 20.4739 53.8519 20.9716 53.8519 21.5866V27.1498C53.8519 28.3765 52.8533 29.3751 51.6266 29.3751C50.3999 29.3751 49.4013 28.3766 49.4013 27.1499C49.4013 26.2198 49.9989 25.3821 50.8877 25.0659C51.331 24.9072 51.6265 24.4878 51.6265 24.0174V17.1361C51.6265 16.5211 51.1289 16.0234 50.5138 16.0234C49.8989 16.0234 49.4013 16.5211 49.4013 17.1361V20.474H32.7116C32.0966 20.474 31.5989 20.9717 31.5989 21.5867V27.1499C31.5989 28.3766 30.6004 29.3752 29.3737 29.3752C28.147 29.3752 27.1484 28.3766 27.1484 27.1499C27.1484 26.2198 27.746 25.3821 28.6349 25.0659C29.0782 24.9072 29.3737 24.4878 29.3737 24.0174V17.1361C29.3737 16.5211 28.876 16.0234 28.261 16.0234C27.646 16.0234 27.1483 16.5211 27.1483 17.1361V20.474H20.4725C18.018 20.474 16.022 22.47 16.022 24.9245V60.5291C16.022 62.9836 18.018 64.9797 20.4726 64.9797H52.2192C52.1266 65.0857 52.0524 65.2059 51.9526 65.3057C51.6342 65.624 51.5386 66.1021 51.7113 66.5183C51.883 66.9345 52.2894 67.205 52.7392 67.205H58.3024C58.3024 68.4316 59.3009 69.4302 60.5276 69.4302C61.7543 69.4302 62.7529 68.4316 62.7529 67.205H68.3161C68.766 67.205 69.1722 66.9344 69.3439 66.5183C69.5169 66.1022 69.4212 65.6241 69.1029 65.3058ZM60.5277 49.4027C56.8464 49.4027 53.8519 52.3973 53.8519 56.0786V60.5292H20.4726V33.8258H60.5277V49.4027Z" fill="#F8F5E6"/>
</svg>
