<svg width="86" height="86" viewBox="0 0 86 86" fill="none" xmlns="http://www.w3.org/2000/svg">
<circle cx="42.7257" cy="42.7257" r="42.7257" fill="#3F7E77"/>
<path d="M55.6827 47.9073C55.6395 47.9073 55.5962 47.9045 55.5534 47.899L50.1071 47.1206C49.6058 47.0487 49.2577 46.5842 49.3296 46.0829C49.3296 46.0828 49.3296 46.0828 49.3296 46.0827L49.8384 42.516C49.9094 42.0146 49.5605 41.5506 49.0591 41.4797C48.8192 41.4458 48.5755 41.5081 48.3815 41.6532L45.4988 43.8143C45.0937 44.1181 44.519 44.0361 44.2152 43.6309L40.9144 39.2299C40.6106 38.8247 40.6926 38.2501 41.0978 37.9462L43.9795 35.7851C44.3847 35.4813 44.4668 34.9066 44.1629 34.5015C44.0169 34.3069 43.7996 34.1782 43.5587 34.1439L39.992 33.6341C39.4907 33.5628 39.1421 33.0985 39.2135 32.5972C39.2135 32.5969 39.2136 32.5965 39.2136 32.5962L39.992 27.1508C40.0633 26.6495 40.5276 26.3009 41.0289 26.3723C41.0292 26.3723 41.0296 26.3724 41.0299 26.3724L44.5966 26.8822C44.9635 26.9353 45.326 26.7609 45.5135 26.4411C45.7082 26.1233 45.6863 25.7183 45.4585 25.4234L43.2992 22.5425C42.9954 22.1374 43.0774 21.5627 43.4826 21.2589L44.0025 20.8692C43.1603 20.8285 42.3162 20.8511 41.4774 20.9371C32.4213 21.9711 25.9183 30.1507 26.9523 39.2068C27.5156 44.1402 30.2702 48.5578 34.4522 51.2346C35.979 52.1813 36.9168 53.842 36.9388 55.6385V59.3436C36.9388 60.8628 38.1703 62.0942 39.6894 62.0942H47.0245C48.5437 62.0942 49.7752 60.8628 49.7752 59.3436V55.7146C49.7984 53.876 50.7554 52.1756 52.3149 51.2016C53.7604 50.2639 55.0513 49.107 56.1411 47.7725C56.0029 47.8572 55.8447 47.9037 55.6827 47.9073ZM44.2739 59.3436H42.4401V56.5929H44.2739V59.3436ZM42.4401 54.7592C42.4395 52.3349 40.9447 50.1619 38.6809 49.2945C32.0783 46.7128 28.8187 39.2676 31.4005 32.665C32.4001 30.1083 34.1931 27.9396 36.5161 26.4769L37.4889 28.0283C32.3458 31.2645 30.8 38.0573 34.0363 43.2004C35.2901 45.1931 37.1501 46.731 39.3429 47.5882C42.3145 48.7248 44.2762 51.5776 44.2739 54.7592H42.4401Z" fill="#F8F5E6"/>
<path d="M39.6895 66.6777V67.5946C39.6895 68.6074 40.5104 69.4284 41.5232 69.4284H45.1908C46.2036 69.4284 47.0246 68.6074 47.0246 67.5946V66.6777H39.6895Z" fill="#F8F5E6"/>
<path d="M33.9568 52.0086C33.4136 51.6564 32.8904 51.2741 32.3899 50.8634C31.0057 53.5579 27.6994 54.6201 25.0049 53.2361C23.1709 52.294 22.0202 50.4029 22.0263 48.3411C22.0306 45.569 24.095 43.2323 26.8455 42.8865C26.509 41.8745 26.2659 40.8337 26.1193 39.7773L25.9588 40.5402C25.7505 41.5312 24.778 42.1657 23.787 41.9574C23.5496 41.9075 23.3245 41.811 23.1247 41.6735L21.2176 40.3642L19.5471 42.031L20.86 43.94C21.4347 44.7739 21.2245 45.9159 20.3906 46.4906C20.1906 46.6283 19.9653 46.725 19.7277 46.775L17.4419 47.2564V49.4349L19.7277 49.9163C20.7187 50.125 21.353 51.0976 21.1443 52.0886C21.0942 52.3265 20.9972 52.5521 20.8591 52.7522L19.5471 54.6511L21.2176 56.318L23.1229 55.005C23.9568 54.4303 25.0988 54.6405 25.6735 55.4744C25.8112 55.6744 25.908 55.8997 25.9579 56.1373L26.4384 58.4268H28.6178L29.0983 56.141C29.3068 55.15 30.2793 54.5156 31.2704 54.7242C31.5079 54.7742 31.7333 54.8709 31.9333 55.0086L33.8376 56.318L35.8044 54.3512C35.4746 53.3821 34.8225 52.5552 33.9568 52.0086Z" fill="#F8F5E6"/>
<path d="M47.0246 63.0098H39.6895V64.8435H47.0246V63.0098Z" fill="#F8F5E6"/>
<path d="M66.2505 31.8283C64.7467 31.6133 63.7019 30.2197 63.9169 28.7159C64.0202 27.9937 64.406 27.3422 64.9898 26.9046L67.138 25.2927L64.9375 22.3587L62.7892 23.9697C61.5741 24.8815 59.8499 24.6355 58.9382 23.4206C58.501 22.8379 58.3127 22.1054 58.4148 21.384L58.7944 18.7251L55.1644 18.207L54.7848 20.866C54.5697 22.3698 53.1763 23.4146 51.6725 23.1996C50.9503 23.0963 50.2987 22.7104 49.8612 22.1267L48.2493 19.9748L45.3152 22.1753L46.9262 24.3236C47.8378 25.5388 47.5918 27.2629 46.3765 28.1746C45.7926 28.6126 45.0586 28.8006 44.336 28.6971L41.677 28.3175L41.1562 31.9484L43.8152 32.328C45.319 32.5431 46.3638 33.9365 46.1488 35.4403C46.0455 36.1625 45.6596 36.8141 45.0759 37.2516L42.9286 38.8635L45.1291 41.7976L47.2774 40.1866C48.4926 39.275 50.2167 39.5211 51.1284 40.7363C51.5664 41.3202 51.7544 42.0543 51.6509 42.7768L51.2713 45.4358L54.9095 45.9566L55.2891 43.2976C55.5042 41.7938 56.8977 40.749 58.4015 40.964C59.1236 41.0673 59.7752 41.4532 60.2128 42.0369L61.8247 44.1842L64.7587 41.9837L63.1422 39.8318C62.231 38.6163 62.4775 36.8922 63.6929 35.981C64.2756 35.5441 65.0078 35.3561 65.7288 35.4582L68.3877 35.8378L68.9058 32.2079L66.2505 31.8283ZM55.0342 37.5799C51.9959 37.5799 49.5329 35.1169 49.5329 32.0786C49.5329 29.0403 51.9959 26.5773 55.0342 26.5773C58.0725 26.5773 60.5355 29.0403 60.5355 32.0786C60.532 35.1154 58.0711 37.5763 55.0342 37.5799Z" fill="#F8F5E6"/>
<path d="M67.196 50.1738H60.7778V52.0076H67.196V50.1738Z" fill="#F8F5E6"/>
<path d="M60.4477 54.97L59.2739 56.3789L64.7756 60.9626L65.9494 59.5537L60.4477 54.97Z" fill="#F8F5E6"/>
<path d="M57.1101 57.5098H55.2764V63.928H57.1101V57.5098Z" fill="#F8F5E6"/>
<path d="M23.879 30.0298L16.5444 31.8633L16.9889 33.6413L24.3235 31.8079L23.879 30.0298Z" fill="#F8F5E6"/>
<path d="M19.1331 21.0067L18.0679 22.498L24.4856 27.082L25.5508 25.5906L19.1331 21.0067Z" fill="#F8F5E6"/>
<path d="M27.7004 16.0223L25.9238 16.4766L27.7991 23.8111L29.5757 23.3569L27.7004 16.0223Z" fill="#F8F5E6"/>
</svg>
