<svg width="15" height="25" viewBox="0 0 15 25" fill="none" xmlns="http://www.w3.org/2000/svg">
<path d="M1.09095 1.245C1.69333 0.557401 2.71523 0.514257 3.37342 1.14863L13.7499 11.1496C14.4081 11.784 14.4533 12.8557 13.8509 13.5433V13.5433C13.2486 14.2309 12.2267 14.274 11.5685 13.6396L1.19201 3.63864C0.53382 3.00426 0.488575 1.93259 1.09095 1.245V1.245Z" fill="#74BE97"/>
<path d="M13.9095 11.4579C13.3072 10.7703 12.2853 10.7271 11.6271 11.3615L1.25062 21.3625C0.592426 21.9969 0.547181 23.0686 1.14956 23.7562V23.7562C1.75194 24.4438 2.77383 24.4869 3.43202 23.8525L13.8085 13.8515C14.4667 13.2172 14.5119 12.1455 13.9095 11.4579V11.4579Z" fill="#74BE97"/>
</svg>
