<svg width="96" height="100" viewBox="0 0 96 100" fill="none" xmlns="http://www.w3.org/2000/svg">
<path d="M86.9221 79.0809V64.6693L92.7918 58.8484L90.7447 56.777L85.2047 62.2805L74.4221 56.9076V41.2826L60.506 34.3002L48.0305 40.5502L35.5426 34.3002L22.9998 40.5502L11.9221 35.0326V21.2184L22.9572 15.7008L33.9924 21.2184V29.6875H36.9221V19.4072L24.4221 13.1572V0H21.4924V13.1572L10.7953 18.5303L2.1912 9.90176L0.0831909 11.9732L8.99257 20.9191V35.3307L3.2205 41.1516L5.31639 43.223L10.7832 37.7195L21.4926 43.0924V58.7174L35.5062 65.6998L48.0307 59.4498L60.543 65.6998L73.0002 59.4498L83.9926 64.9674V78.7816L72.9574 84.2992L61.9223 78.7816V70.3125H58.9926V80.5928L71.4926 86.8428V100H74.4223V86.8428L85.217 81.4697L93.8941 90.0982L95.9168 88.0268L86.9221 79.0809ZM46.4924 56.9072L35.4572 62.4248L24.4221 56.9072V43.093L35.4572 37.5754L46.4924 43.093V56.9072ZM71.4924 56.9072L60.4572 62.4248L49.4221 56.9072V43.093L60.4572 37.5754L71.4924 43.093V56.9072Z" fill="#3F7E77"/>
<path d="M19.9297 31.4453H16.8047V34.375H19.9297V31.4453Z" fill="#3F7E77"/>
<path d="M30.6719 43.75H27.7422V56.25H30.6719V43.75Z" fill="#3F7E77"/>
</svg>
