<svg width="98" height="98" viewBox="0 0 98 98" fill="none" xmlns="http://www.w3.org/2000/svg">
<path d="M63.0625 50.5625C68.2328 50.5625 72.4375 46.3578 72.4375 41.1875C72.4375 36.0172 68.2328 31.8125 63.0625 31.8125C62.8844 31.8125 62.7109 31.8203 62.5437 31.8328C59.7812 27.9938 54.5938 25.5625 49 25.5625C41.7953 25.5625 35.6062 29.5031 33.8687 34.9562C29.3641 34.6281 25.5625 38.2781 25.5625 42.75C25.5625 47.0578 29.0672 50.5625 33.375 50.5625H44.3125V63.4656C42.2172 61.2609 39.2422 59.8734 35.9031 59.8719C33.6484 59.8719 31.8125 61.7078 31.8125 63.9625C31.8125 64.5938 31.9625 65.2281 32.2437 65.7922L34.0641 69.4344C34.6359 70.5766 34.9375 71.8531 34.9375 73.1281V79.5469C34.9375 81.2266 35.3328 82.9078 36.0781 84.4094L39.625 91.5531V97.3672L67.75 97.4422V91.7078L70.25 88.375C71.6609 86.4953 72.4375 84.1656 72.4375 81.8125V64.625C72.4375 62.0406 70.3344 59.9375 67.75 59.9375C67.1328 59.9375 66.5469 60.0641 66.0062 60.2812C65.4672 58.2891 63.6609 56.8125 61.5 56.8125C60.2953 56.8125 59.2062 57.2828 58.375 58.0312C57.5438 57.2812 56.4547 56.8125 55.25 56.8125C54.7 56.8125 54.1781 56.925 53.6875 57.1V50.5625H63.0625ZM33.375 47.4375C30.7906 47.4375 28.6875 45.3344 28.6875 42.75C28.6875 40.1656 30.7906 38.0625 33.375 38.0625C33.7469 38.0625 34.1453 38.125 34.6281 38.2594L36.325 38.7344L36.5922 36.9922C37.3172 32.2578 42.6531 28.6875 49 28.6875C53.925 28.6875 58.4109 30.8906 60.4266 34.3L60.9734 35.2219L62.0297 35.0469C62.4203 34.9797 62.7469 34.9375 63.0625 34.9375C66.5094 34.9375 69.3125 37.7406 69.3125 41.1875C69.3125 44.6344 66.5094 47.4375 63.0625 47.4375H53.6875V42.75C53.6875 40.1656 51.5844 38.0625 49 38.0625C46.4156 38.0625 44.3125 40.1656 44.3125 42.75V47.4375H33.375ZM55.25 59.9375C56.1125 59.9375 56.8125 60.6375 56.8125 61.5V67.75H59.9375V61.5C59.9375 60.6375 60.6375 59.9375 61.5 59.9375C62.3625 59.9375 63.0625 60.6375 63.0625 61.5V64.625V67.75H66.1875V64.625C66.1875 63.7625 66.8875 63.0625 67.75 63.0625C68.6125 63.0625 69.3125 63.7625 69.3125 64.625V81.8125C69.3125 83.4922 68.7578 85.1578 67.75 86.5L64.625 90.6672V94.3078L42.75 94.2516V90.8219L38.8766 83.0219C38.3453 81.9484 38.0625 80.7469 38.0625 79.5484V73.1297C38.0625 71.3719 37.6453 69.6109 36.8594 68.0375L35.0391 64.3953C34.9719 64.2625 34.9375 64.1125 34.9375 63.9625C34.9375 63.4297 35.3703 62.9969 36.0531 62.9969C40.6078 62.9984 44.3125 66.7047 44.3125 71.2578V73.9344V77.0594H47.4375V73.9344V71.2578V42.75C47.4375 41.8875 48.1375 41.1875 49 41.1875C49.8625 41.1875 50.5625 41.8875 50.5625 42.75V61.5V67.75H53.6875V61.5C53.6875 60.6375 54.3875 59.9375 55.25 59.9375Z" fill="#3F7E77"/>
<path d="M8.375 36.5781V41.1875C8.375 44.6344 11.1781 47.4375 14.625 47.4375C18.0719 47.4375 20.875 44.6344 20.875 41.1875V36.5781C25.4969 34.2719 28.6875 29.5063 28.6875 24C28.6875 16.2453 22.3797 9.9375 14.625 9.9375C6.87031 9.9375 0.5625 16.2453 0.5625 24C0.5625 29.5078 3.75313 34.2719 8.375 36.5781ZM17.75 41.1875C17.75 42.9109 16.3484 44.3125 14.625 44.3125C12.9016 44.3125 11.5 42.9109 11.5 41.1875V37.7C12.5063 37.9297 13.55 38.0625 14.625 38.0625C15.7 38.0625 16.7437 37.9297 17.75 37.7V41.1875ZM13.0625 24C13.0625 23.1375 13.7625 22.4375 14.625 22.4375C15.4875 22.4375 16.1875 23.1375 16.1875 24C16.1875 24.8625 15.4875 25.5625 14.625 25.5625C13.7625 25.5625 13.0625 24.8625 13.0625 24ZM14.625 13.0625C20.6547 13.0625 25.5625 17.9703 25.5625 24C25.5625 29.4984 21.4781 34.05 16.1875 34.8125V28.4C18.0016 27.7531 19.3125 26.0344 19.3125 24C19.3125 21.4156 17.2094 19.3125 14.625 19.3125C12.0406 19.3125 9.9375 21.4156 9.9375 24C9.9375 26.0344 11.2484 27.7531 13.0625 28.4V34.8125C7.77187 34.05 3.6875 29.4984 3.6875 24C3.6875 17.9703 8.59531 13.0625 14.625 13.0625Z" fill="#3F7E77"/>
<path d="M13.0625 0.5625H16.1875V6.8125H13.0625V0.5625Z" fill="#3F7E77"/>
<path d="M3.84924 2.82349L6.64301 1.42665L9.76652 7.67343L6.97275 9.07027L3.84924 2.82349Z" fill="#3F7E77"/>
<path d="M19.4711 7.68433L22.5946 1.43755L25.3883 2.83438L22.2648 9.08116L19.4711 7.68433Z" fill="#3F7E77"/>
<path d="M91.5328 67.425C93.2188 65.9906 94.3125 63.8813 94.3125 61.5C94.3125 57.1922 90.8078 53.6875 86.5 53.6875C82.1922 53.6875 78.6875 57.1922 78.6875 61.5C78.6875 63.8813 79.7812 65.9906 81.4672 67.425C77.9641 69.25 75.5625 72.9094 75.5625 77.125V84.9375H97.4375V77.125C97.4375 72.9094 95.0359 69.25 91.5328 67.425ZM81.8125 61.5C81.8125 58.9156 83.9156 56.8125 86.5 56.8125C89.0844 56.8125 91.1875 58.9156 91.1875 61.5C91.1875 64.0844 89.0844 66.1875 86.5 66.1875C83.9156 66.1875 81.8125 64.0844 81.8125 61.5ZM94.3125 81.8125H78.6875V77.125C78.6875 72.8172 82.1922 69.3125 86.5 69.3125C90.8078 69.3125 94.3125 72.8172 94.3125 77.125V81.8125Z" fill="#3F7E77"/>
<path d="M88.0625 0.5625V3.6875H81.8125V6.8125H75.5625V25.5625H97.4375V0.5625H88.0625ZM78.6875 9.9375H81.8125V22.4375H78.6875V9.9375ZM84.9375 22.4375V6.8125H88.0625V22.4375H84.9375ZM94.3125 22.4375H91.1875V3.6875H94.3125V22.4375Z" fill="#3F7E77"/>
<path d="M84.9375 50.5625H88.0625V44.3125H75.5625V47.4375H84.9375V50.5625Z" fill="#3F7E77"/>
<path d="M88.0625 28.6875H84.9375V38.0625H75.5625V41.1875H88.0625V28.6875Z" fill="#3F7E77"/>
<path d="M6.8125 77.125H16.1875V80.25H6.8125V77.125Z" fill="#3F7E77"/>
<path d="M19.3125 77.125H22.4375V80.25H19.3125V77.125Z" fill="#3F7E77"/>
<path d="M6.8125 70.875H22.4375V74H6.8125V70.875Z" fill="#3F7E77"/>
<path d="M24 64.625H5.25C2.66562 64.625 0.5625 66.7281 0.5625 69.3125V81.8125C0.5625 84.3969 2.66562 86.5 5.25 86.5H10.8531L15.9984 91.6453C16.7 92.3469 17.6719 92.75 18.6656 92.75C20.7453 92.75 22.4375 91.0578 22.4375 88.9781V86.5H24C26.5844 86.5 28.6875 84.3969 28.6875 81.8125V69.3125C28.6875 66.7281 26.5844 64.625 24 64.625ZM25.5625 81.8125C25.5625 82.675 24.8625 83.375 24 83.375H19.3125V88.9781C19.3125 89.5062 18.5813 89.8078 18.2078 89.4359L12.1469 83.375H5.25C4.3875 83.375 3.6875 82.675 3.6875 81.8125V69.3125C3.6875 68.45 4.3875 67.75 5.25 67.75H24C24.8625 67.75 25.5625 68.45 25.5625 69.3125V81.8125Z" fill="#3F7E77"/>
<path d="M47.4375 22.4375H50.5625V16.1875H30.25V19.3125H47.4375V22.4375Z" fill="#3F7E77"/>
</svg>
