<svg width="905" height="70" viewBox="0 0 905 70" fill="none" xmlns="http://www.w3.org/2000/svg">
<path d="M461.766 16C455.278 16 450 21.278 450 27.7657V44.2343C450 50.722 455.278 56 461.766 56C468.253 56 473.532 50.722 473.532 44.2343V27.7657C473.532 21.278 468.253 16 461.766 16ZM471.132 44.2343C471.132 49.3984 466.93 53.6001 461.766 53.6001C456.602 53.6001 452.4 49.3984 452.4 44.2343V27.7657C452.4 22.6016 456.602 18.3999 461.766 18.3999C466.93 18.3999 471.132 22.6016 471.132 27.7657V44.2343Z" fill="#F8F5E6"/>
<path d="M461.766 23.9572C461.103 23.9572 460.566 24.4943 460.566 25.1571V30.6802C460.566 31.3427 461.103 31.8801 461.766 31.8801C462.428 31.8801 462.966 31.3427 462.966 30.6802V25.1571C462.966 24.4943 462.429 23.9572 461.766 23.9572Z" fill="#F8F5E6"/>
<path d="M427 35H10V36H427V35Z" fill="#F8F5E6"/>
<path d="M895 35H497V36H895V35Z" fill="#F8F5E6"/>
<path d="M5 40.5C7.48528 40.5 9.5 38.4853 9.5 36C9.5 33.5147 7.48528 31.5 5 31.5C2.51472 31.5 0.5 33.5147 0.5 36C0.5 38.4853 2.51472 40.5 5 40.5Z" stroke="#F8F5E6"/>
<path d="M900 39.5C902.485 39.5 904.5 37.4853 904.5 35C904.5 32.5147 902.485 30.5 900 30.5C897.515 30.5 895.5 32.5147 895.5 35C895.5 37.4853 897.515 39.5 900 39.5Z" stroke="#F8F5E6"/>
<path d="M462 69.5C481.054 69.5 496.5 54.0538 496.5 35C496.5 15.9462 481.054 0.5 462 0.5C442.946 0.5 427.5 15.9462 427.5 35C427.5 54.0538 442.946 69.5 462 69.5Z" stroke="#F8F5E6"/>
</svg>
