<svg width="312" height="206" viewBox="0 0 312 206" fill="none" xmlns="http://www.w3.org/2000/svg">
<path d="M1 1.70826e-06C0.999996 85.6041 70.3959 155 156 155C241.604 155 311 85.6042 311 1.52588e-05" stroke="#3F7E77"/>
<rect x="156" y="159" width="37" height="1" transform="rotate(90 156 159)" fill="#3F7E77"/>
<path d="M155.5 159.5C152.739 159.5 150.5 157.261 150.5 154.5C150.5 151.739 152.739 149.5 155.5 149.5C158.261 149.5 160.5 151.739 160.5 154.5C160.5 157.261 158.261 159.5 155.5 159.5Z" fill="white" stroke="#3F7E77"/>
<path d="M155.5 205.5C152.739 205.5 150.5 203.261 150.5 200.5C150.5 197.739 152.739 195.5 155.5 195.5C158.261 195.5 160.5 197.739 160.5 200.5C160.5 203.261 158.261 205.5 155.5 205.5Z" stroke="#3F7E77"/>
</svg>
