<svg width="100" height="96" viewBox="0 0 100 96" fill="none" xmlns="http://www.w3.org/2000/svg">
<g clip-path="url(#clip0)">
<path d="M49.6665 95.7942C46.1829 95.7942 42.7013 95.0921 39.4769 93.6897L24.0593 86.9876C18.4816 84.5614 12.584 83.0248 6.53069 82.4196L1.46763 81.9132C0.634048 81.8302 0 81.1292 0 80.2918V64.4098C0 64.0573 0.114688 63.7142 0.326348 63.4326C0.704912 62.9263 9.77926 51.0715 23.6407 54.1559C31.4367 55.8884 37.7137 59.1304 41.6066 61.5454C44.4328 63.2983 47.7457 64.2242 51.1873 64.2242H66.6049C69.2623 64.2242 71.598 65.6304 72.9043 67.7396L86.183 52.4412C88.7574 49.0034 92.9691 46.8979 97.3786 46.8979H98.3707C98.9217 46.8979 99.4346 47.1758 99.7348 47.6364C100.036 48.097 100.084 48.6798 99.8625 49.1833L87.8529 76.4773C85.2272 82.4467 79.8807 86.9559 73.5524 88.5382L71.4395 89.0659L59.1483 93.9825C56.1235 95.1919 52.8945 95.7942 49.6665 95.7942ZM3.25975 78.8168L6.85518 79.1766C13.2451 79.8153 19.4709 81.4386 25.3601 83.9991L40.7767 90.7014C46.1979 93.0586 52.4498 93.1509 57.9389 90.955L70.3308 85.9982C70.3998 85.9711 70.4698 85.9488 70.5416 85.931L72.7617 85.3753C78.1203 84.0354 82.6472 80.2181 84.8692 75.1644L95.8233 50.2696C93.0186 50.6827 90.4376 52.1941 88.7182 54.486L74.0083 71.4394C74.0102 71.5028 74.0111 71.5653 74.0111 71.6296C74.0111 75.7127 70.6889 79.0348 66.6058 79.0348H45.0948C42.2985 79.0348 39.5348 79.4834 36.882 80.3674L36.2834 78.8474L35.7771 77.2987L35.8601 77.2716C38.8373 76.2795 41.9469 75.7752 45.0948 75.7752H66.6058C68.8912 75.7752 70.7523 73.915 70.7523 71.6287C70.7523 69.3424 68.8921 67.4822 66.6058 67.4822H51.1882C47.1387 67.4822 43.2318 66.3865 39.89 64.3137C36.2125 62.0321 30.2842 58.971 22.9358 57.3364C12.4385 55.0082 4.88497 63.0643 3.26068 64.986V78.8168H3.25975Z" fill="#3F7E77"/>
<path d="M64.1787 46.5296C61.6724 46.5296 58.862 45.7557 55.7683 44.2088C55.3934 44.0205 55.1044 43.6941 54.9626 43.2997C54.8368 42.9463 51.9248 34.5704 56.5524 28.3763C59.9157 23.8736 66.2394 21.8456 75.3585 22.3538C76.1902 22.3995 76.8531 23.0661 76.8942 23.8997C76.9268 24.5468 77.5991 39.8209 69.8105 44.9063C68.1546 45.9888 66.2729 46.5296 64.1787 46.5296ZM57.8466 41.5934C62.1274 43.6009 65.5494 43.7976 68.0296 42.178C72.6479 39.1616 73.6465 30.2076 73.6708 25.5473C66.5256 25.373 61.6612 26.9833 59.1632 30.326C56.1906 34.3065 57.3459 39.7817 57.8466 41.5934Z" fill="#3F7E77"/>
<path d="M39.2567 25.1778C36.3671 25.1778 33.0337 24.5587 30.1245 22.4281C25.1901 18.8121 22.9225 11.9281 23.3831 1.96787C23.4223 1.13521 24.0824 0.465728 24.9151 0.41631C25.62 0.376216 42.3048 -0.514249 47.9189 7.913C50.5334 11.8357 50.319 16.9734 47.2839 23.1861C47.0993 23.5638 46.7767 23.8556 46.3823 24.0001C46.1631 24.0813 43.1039 25.1778 39.2567 25.1778ZM45.82 22.471H45.8359H45.82ZM26.5906 3.62292C26.4499 11.6008 28.2839 17.0387 32.05 19.7986C36.5592 23.1022 42.716 21.698 44.6517 21.1339C46.8662 16.3282 47.0536 12.4912 45.2074 9.72003C41.7761 4.56933 31.7134 3.56231 26.5906 3.62292Z" fill="#3F7E77"/>
<path d="M51.9837 66.9098C51.9324 66.9098 51.8811 66.907 51.8289 66.9023C50.9608 66.8202 50.3109 66.0696 50.3547 65.1978C50.4508 63.2808 50.6149 61.4625 50.8377 59.7394C51.5156 48.2072 51.166 21.3515 34.1865 13.922C33.3623 13.5611 32.9856 12.6007 33.3464 11.7756C33.7063 10.9522 34.6695 10.5765 35.4929 10.9364C45.4987 15.3141 51.7935 26.2132 53.6928 42.4551C53.8635 43.9106 53.9912 45.3456 54.0863 46.7433C58.5582 35.4433 65.3994 31.4506 65.8069 31.2222C66.5901 30.7793 67.5841 31.0609 68.026 31.8432C68.4652 32.6264 68.1892 33.6176 67.4088 34.0595C67.2363 34.1602 56.7456 40.456 54.1124 59.8709C53.9119 63.1922 53.6229 65.3097 53.5958 65.5037C53.483 66.3167 52.7884 66.9098 51.9837 66.9098Z" fill="#3F7E77"/>
</g>
<defs>
<clipPath id="clip0">
<rect width="100" height="96" fill="white"/>
</clipPath>
</defs>
</svg>
