<svg width="20" height="25" viewBox="0 0 20 25" fill="none" xmlns="http://www.w3.org/2000/svg">
<path d="M18.7904 25C18.26 25 17.8301 24.5628 17.8301 24.0234C17.8301 20.2002 14.7715 17.0898 11.012 17.0898H9.57161C5.81214 17.0898 2.75358 20.2002 2.75358 24.0234C2.75358 24.5628 2.32366 25 1.79329 25C1.26293 25 0.833008 24.5628 0.833008 24.0234C0.833008 19.1233 4.75314 15.1367 9.57161 15.1367H11.012C15.8305 15.1367 19.7507 19.1233 19.7507 24.0234C19.7507 24.5628 19.3207 25 18.7904 25Z" fill="#F8F5E6"/>
<path d="M10.1958 13.1836C6.62166 13.1836 3.71387 10.2265 3.71387 6.5918C3.71387 2.95708 6.62166 0 10.1958 0C13.7699 0 16.6777 2.95708 16.6777 6.5918C16.6777 10.2265 13.7699 13.1836 10.1958 13.1836ZM10.1958 1.95312C7.68067 1.95312 5.63444 4.03403 5.63444 6.5918C5.63444 9.14956 7.68067 11.2305 10.1958 11.2305C12.7109 11.2305 14.7572 9.14956 14.7572 6.5918C14.7572 4.03403 12.7109 1.95312 10.1958 1.95312Z" fill="#F8F5E6"/>
</svg>
