<svg width="386" height="254" viewBox="0 0 386 254" fill="none" xmlns="http://www.w3.org/2000/svg">
<path d="M184.867 47.9675C185.958 48.7891 187.211 49.3705 188.542 49.6737L179.512 70.8031C178.426 69.9601 177.135 69.424 175.772 69.2506L184.867 47.9675Z" fill="#F8F5E6"/>
<path d="M203.752 64.3504C202.426 64.6281 201.152 65.1168 199.98 65.7978L193.009 49.69C194.335 49.3943 195.584 48.8241 196.676 48.0161L203.752 64.3504Z" fill="#F8F5E6"/>
<path d="M190.86 32.0215C189.406 32.0215 187.985 32.4533 186.776 33.2622C185.567 34.0711 184.625 35.2208 184.069 36.5659C183.513 37.9109 183.368 39.3909 183.652 40.8185C183.936 42.2462 184.637 43.5573 185.666 44.5861C186.695 45.6149 188.005 46.315 189.431 46.5981C190.858 46.8811 192.336 46.7342 193.679 46.176C195.022 45.6178 196.169 44.6734 196.976 43.4623C197.783 42.2511 198.212 40.8276 198.211 39.3719C198.209 37.4217 197.433 35.5521 196.055 34.1739C194.677 32.7956 192.809 32.0215 190.86 32.0215ZM190.86 44.7088C189.806 44.7088 188.775 44.3958 187.899 43.8094C187.022 43.223 186.339 42.3894 185.935 41.4142C185.532 40.439 185.426 39.366 185.632 38.3307C185.838 37.2954 186.345 36.3445 187.091 35.5981C187.836 34.8517 188.786 34.3434 189.82 34.1375C190.855 33.9316 191.926 34.0373 192.901 34.4412C193.875 34.8452 194.707 35.5292 195.293 36.4069C195.879 37.2845 196.192 38.3163 196.192 39.3719C196.189 40.7867 195.627 42.1429 194.628 43.1433C193.628 44.1437 192.274 44.7067 190.86 44.7088Z" fill="#F8F5E6"/>
<path d="M190.86 30C189.007 30 187.195 30.5503 185.654 31.5814C184.113 32.6124 182.912 34.0779 182.203 35.7923C181.494 37.5068 181.309 39.3932 181.671 41.213C182.034 43.0328 182.927 44.7041 184.238 46.0156C185.549 47.3271 187.219 48.2198 189.037 48.5809C190.856 48.9419 192.74 48.755 194.452 48.0438C196.164 47.3326 197.626 46.1291 198.655 44.5855C199.684 43.0418 200.232 41.2275 200.23 39.372C200.226 36.8863 199.237 34.5037 197.481 32.7469C195.724 30.99 193.343 30.0021 190.86 30ZM190.86 44.7089C189.806 44.7089 188.775 44.3959 187.899 43.8095C187.022 43.223 186.339 42.3895 185.935 41.4143C185.532 40.4391 185.426 39.366 185.632 38.3308C185.838 37.2955 186.345 36.3446 187.091 35.5982C187.836 34.8518 188.786 34.3435 189.82 34.1376C190.855 33.9317 191.926 34.0374 192.901 34.4413C193.875 34.8452 194.707 35.5293 195.293 36.4069C195.879 37.2846 196.192 38.3164 196.192 39.372C196.189 40.7868 195.627 42.143 194.628 43.1434C193.628 44.1438 192.274 44.7068 190.86 44.7089Z" fill="#F8F5E6"/>
<path d="M174.237 72.3557C173.207 72.3541 172.198 72.6587 171.341 73.2308C170.483 73.8029 169.814 74.6169 169.418 75.5698C169.023 76.5227 168.918 77.5716 169.118 78.5839C169.319 79.5962 169.814 80.5263 170.542 81.2565C171.271 81.9867 172.199 82.4843 173.21 82.6862C174.221 82.8881 175.269 82.7853 176.221 82.3907C177.174 81.9962 177.988 81.3277 178.561 80.4698C179.133 79.612 179.439 78.6033 179.439 77.5714C179.44 76.8868 179.306 76.2088 179.046 75.576C178.785 74.9433 178.402 74.3683 177.918 73.8838C177.435 73.3994 176.861 73.0151 176.23 72.7529C175.598 72.4907 174.921 72.3557 174.237 72.3557ZM174.237 80.7573C173.606 80.7589 172.988 80.5728 172.462 80.2224C171.936 79.8721 171.526 79.3733 171.283 78.7893C171.041 78.2054 170.977 77.5625 171.1 76.9421C171.222 76.3218 171.527 75.7519 171.973 75.3047C172.42 74.8575 172.989 74.5532 173.609 74.4302C174.228 74.3072 174.871 74.3711 175.454 74.6139C176.037 74.8566 176.535 75.2673 176.885 75.7938C177.235 76.3203 177.421 76.9389 177.42 77.5714C177.418 78.4157 177.082 79.2248 176.485 79.8218C175.889 80.4189 175.081 80.7552 174.237 80.7573Z" fill="#F8F5E6"/>
<path d="M174.237 70.3342C172.807 70.3326 171.409 70.7557 170.219 71.55C169.029 72.3442 168.101 73.474 167.553 74.7963C167.004 76.1185 166.86 77.574 167.138 78.9784C167.416 80.3828 168.104 81.6731 169.115 82.686C170.125 83.699 171.413 84.3891 172.816 84.669C174.218 84.9489 175.672 84.806 176.994 84.2585C178.315 83.711 179.445 82.7834 180.24 81.593C181.034 80.4027 181.458 79.0032 181.458 77.5714C181.448 75.6567 180.684 73.8232 179.332 72.4685C177.981 71.1138 176.15 70.347 174.237 70.3342ZM174.237 80.7574C173.606 80.759 172.988 80.5728 172.462 80.2225C171.936 79.8721 171.526 79.3734 171.283 78.7894C171.041 78.2054 170.977 77.5625 171.1 76.9422C171.222 76.3219 171.526 75.752 171.973 75.3048C172.42 74.8576 172.989 74.5532 173.609 74.4303C174.228 74.3073 174.871 74.3712 175.454 74.614C176.037 74.8567 176.535 75.2674 176.885 75.7939C177.235 76.3204 177.421 76.939 177.42 77.5714C177.418 78.4158 177.082 79.2249 176.485 79.8219C175.889 80.4189 175.081 80.7553 174.237 80.7574Z" fill="#F8F5E6"/>
<path d="M206.967 67.1968C204.909 67.1968 202.898 67.808 201.188 68.9529C199.478 70.0979 198.145 71.7252 197.359 73.6287C196.574 75.5322 196.37 77.6264 196.773 79.646C197.177 81.6657 198.17 83.52 199.627 84.9741C201.084 86.4283 202.94 87.4169 204.958 87.8148C206.977 88.2127 209.068 88.0019 210.967 87.2093C212.866 86.4167 214.488 85.0777 215.626 83.3621C216.764 81.6464 217.369 79.6311 217.362 77.5714C217.354 74.8169 216.255 72.1782 214.306 70.2335C212.357 68.2888 209.718 67.1968 206.967 67.1968ZM206.967 85.9812C205.311 85.9811 203.693 85.4899 202.316 84.5696C200.939 83.6493 199.865 82.3411 199.23 80.8103C198.596 79.2794 198.428 77.5946 198.75 75.9687C199.071 74.3427 199.866 72.8486 201.035 71.6749C202.204 70.5012 203.695 69.7006 205.318 69.3743C206.941 69.0481 208.624 69.2107 210.155 69.8416C211.686 70.4726 212.996 71.5436 213.919 72.9194C214.843 74.2952 215.338 75.914 215.343 77.5714C215.341 79.794 214.457 81.9248 212.887 83.4956C211.316 85.0665 209.187 85.9488 206.967 85.9488V85.9812Z" fill="#F8F5E6"/>
<path d="M206.967 65.1428C204.511 65.1428 202.111 65.8717 200.069 67.2374C198.028 68.6031 196.437 70.5442 195.497 72.8152C194.557 75.0862 194.311 77.5852 194.79 79.9961C195.269 82.407 196.452 84.6216 198.188 86.3597C199.924 88.0979 202.136 89.2816 204.545 89.7612C206.953 90.2407 209.449 89.9946 211.718 89.0539C213.986 88.1132 215.925 86.5202 217.289 84.4763C218.654 82.4325 219.382 80.0295 219.382 77.5714C219.379 74.2758 218.071 71.1158 215.743 68.7854C213.415 66.4551 210.259 65.145 206.967 65.1428ZM206.967 85.9488C205.31 85.9488 203.69 85.4568 202.312 84.535C200.935 83.6132 199.861 82.3031 199.227 80.7704C198.594 79.2377 198.428 77.5513 198.752 75.9244C199.076 74.2976 199.874 72.8034 201.047 71.631C202.219 70.4586 203.712 69.6606 205.338 69.338C206.963 69.0154 208.647 69.1826 210.178 69.8185C211.708 70.4544 213.016 71.5304 213.935 72.9105C214.855 74.2905 215.345 75.9126 215.343 77.5714C215.341 79.794 214.457 81.9248 212.887 83.4956C211.316 85.0664 209.187 85.9488 206.967 85.9488Z" fill="#F8F5E6"/>
<path d="M200.044 58.8354H181.563V62.8786H200.044V58.8354Z" fill="#F8F5E6"/>
<path d="M193 119.5C225.861 119.5 252.5 92.8609 252.5 60C252.5 27.1391 225.861 0.5 193 0.5C160.139 0.5 133.5 27.1391 133.5 60C133.5 92.8609 160.139 119.5 193 119.5Z" stroke="#F8F5E6"/>
<path d="M5 64.5C7.48528 64.5 9.5 62.4853 9.5 60C9.5 57.5147 7.48528 55.5 5 55.5C2.51472 55.5 0.5 57.5147 0.5 60C0.5 62.4853 2.51472 64.5 5 64.5Z" stroke="#F8F5E6"/>
<path d="M381 64.5C383.485 64.5 385.5 62.4853 385.5 60C385.5 57.5147 383.485 55.5 381 55.5C378.515 55.5 376.5 57.5147 376.5 60C376.5 62.4853 378.515 64.5 381 64.5Z" stroke="#F8F5E6"/>
<path d="M188.5 249C188.5 251.485 190.515 253.5 193 253.5C195.485 253.5 197.5 251.485 197.5 249C197.5 246.515 195.485 244.5 193 244.5C190.515 244.5 188.5 246.515 188.5 249Z" stroke="#F8F5E6"/>
<path d="M306.356 147.632C308.508 148.875 311.26 148.137 312.503 145.985C313.746 143.833 313.008 141.081 310.856 139.838C308.704 138.595 305.952 139.333 304.709 141.485C303.466 143.637 304.204 146.389 306.356 147.632Z" stroke="#F8F5E6"/>
<path d="M74.5802 138.614C72.4279 139.857 71.6904 142.609 72.9331 144.761C74.1757 146.913 76.9279 147.651 79.0802 146.408C81.2325 145.165 81.97 142.413 80.7273 140.261C79.4847 138.109 76.7325 137.371 74.5802 138.614Z" stroke="#F8F5E6"/>
<path d="M133.5 60H10" stroke="#F8F5E6"/>
<path d="M375.5 60H252" stroke="#F8F5E6"/>
<path d="M193 243.5V120" stroke="#F8F5E6"/>
<path d="M305.282 141L236 101" stroke="#F8F5E6"/>
<path d="M80.861 141L150.143 101" stroke="#F8F5E6"/>
</svg>
