<svg width="75" height="85" viewBox="0 0 75 85" fill="none" xmlns="http://www.w3.org/2000/svg">
<g clip-path="url(#clip0)">
<path d="M25.3117 25.4541C26.8578 26.6179 28.6321 27.4416 30.5183 27.8712L17.7251 57.8046C16.1873 56.6103 14.3577 55.8508 12.427 55.6051L25.3117 25.4541Z" fill="#F8F5E6"/>
<path d="M52.0655 48.6627C50.1863 49.0561 48.3822 49.7484 46.7217 50.7132L36.8464 27.8938C38.7244 27.4748 40.494 26.6671 42.0415 25.5225L52.0655 48.6627Z" fill="#F8F5E6"/>
<path d="M33.8024 2.86377C31.7424 2.86377 29.7287 3.47545 28.016 4.62142C26.3033 5.76739 24.9687 7.39616 24.1809 9.30167C23.3931 11.2072 23.1875 13.3038 23.5902 15.3263C23.993 17.3487 24.9858 19.2062 26.4433 20.6636C27.9007 22.1211 29.7572 23.113 31.7779 23.514C33.7986 23.9149 35.8927 23.7068 37.7953 22.9161C39.6978 22.1253 41.3233 20.7874 42.4661 19.0716C43.609 17.3557 44.2178 15.3391 44.2155 13.2769C44.2125 10.5141 43.114 7.8655 41.1615 5.913C39.209 3.96049 36.5621 2.86377 33.8024 2.86377ZM33.8024 20.8375C32.3087 20.8375 30.8485 20.3941 29.6065 19.5633C28.3646 18.7326 27.3966 17.5517 26.8249 16.1702C26.2533 14.7887 26.1038 13.2685 26.3952 11.8019C26.6866 10.3352 27.4059 8.98805 28.4621 7.93067C29.5183 6.87329 30.864 6.15321 32.329 5.86148C33.794 5.56975 35.3125 5.71947 36.6926 6.29172C38.0726 6.86397 39.2521 7.83304 40.0819 9.07639C40.9118 10.3197 41.3547 11.7815 41.3547 13.2769C41.3517 15.2811 40.5551 17.2025 39.1394 18.6197C37.7237 20.037 35.8045 20.8345 33.8024 20.8375Z" fill="#F8F5E6"/>
<path d="M33.8025 0C31.1767 9.76774e-07 28.6098 0.779644 26.4267 2.2403C24.2436 3.70096 22.5423 5.77701 21.5379 8.20582C20.5336 10.6346 20.2714 13.3071 20.7845 15.8851C21.2976 18.4631 22.563 20.8309 24.4205 22.6888C26.278 24.5468 28.6443 25.8115 31.2199 26.3229C33.7955 26.8344 36.4648 26.5696 38.8901 25.5621C41.3153 24.5545 43.3876 22.8495 44.8448 20.6628C46.302 18.476 47.0786 15.9057 47.0763 13.277C47.0702 9.75559 45.6694 6.38032 43.1811 3.89139C40.6927 1.40246 37.32 0.00302785 33.8025 0ZM33.8025 20.8377C32.3087 20.8377 30.8486 20.3942 29.6066 19.5634C28.3646 18.7327 27.3966 17.5519 26.825 16.1703C26.2534 14.7888 26.1038 13.2686 26.3952 11.802C26.6866 10.3353 27.4059 8.98817 28.4621 7.93079C29.5184 6.87341 30.8641 6.15333 32.3291 5.8616C33.7941 5.56987 35.3126 5.71959 36.6926 6.29184C38.0726 6.86409 39.2521 7.83316 40.082 9.0765C40.9119 10.3198 41.3548 11.7816 41.3548 13.277C41.3518 15.2813 40.5551 17.2026 39.1394 18.6198C37.7237 20.0371 35.8045 20.8346 33.8025 20.8377Z" fill="#F8F5E6"/>
<path d="M10.2529 60.0039C8.79268 60.0016 7.36457 60.4331 6.14932 61.2436C4.93406 62.0541 3.98628 63.2073 3.42589 64.5572C2.86551 65.9071 2.71772 67.3932 3.00121 68.8272C3.2847 70.2612 3.98674 71.5789 5.01849 72.6134C6.05025 73.6479 7.36534 74.3527 8.79737 74.6388C10.2294 74.9248 11.714 74.7791 13.0633 74.2202C14.4126 73.6613 15.566 72.7143 16.3775 71.499C17.189 70.2836 17.6222 68.8546 17.6222 67.3927C17.6237 66.423 17.4342 65.4624 17.0645 64.566C16.6949 63.6696 16.1523 62.855 15.4678 62.1687C14.7834 61.4825 13.9705 60.938 13.0757 60.5666C12.1808 60.1951 11.2216 60.0039 10.2529 60.0039ZM10.2529 71.9062C9.35799 71.9085 8.48253 71.6448 7.73747 71.1484C6.99242 70.6521 6.41131 69.9455 6.06779 69.1182C5.72426 68.2909 5.63379 67.3802 5.80783 66.5013C5.98187 65.6225 6.41259 64.8152 7.0454 64.1817C7.67822 63.5482 8.48465 63.117 9.3625 62.9427C10.2404 62.7685 11.1501 62.8591 11.9765 63.203C12.8029 63.5469 13.5087 64.1286 14.0045 64.8745C14.5003 65.6204 14.7637 66.4968 14.7615 67.3927C14.7584 68.5889 14.2825 69.7351 13.4376 70.5809C12.5927 71.4267 11.4477 71.9032 10.2529 71.9062Z" fill="#F8F5E6"/>
<path d="M10.2529 57.1401C8.22684 57.1379 6.24564 57.7373 4.55994 58.8625C2.87423 59.9877 1.55978 61.5881 0.782876 63.4614C0.0059706 65.3346 -0.198477 67.3964 0.195398 69.386C0.589273 71.3756 1.56377 73.2035 2.99561 74.6386C4.42744 76.0736 6.25227 77.0512 8.23923 77.4477C10.2262 77.8443 12.286 77.6419 14.158 76.8662C16.0301 76.0906 17.6303 74.7764 18.7561 73.0902C19.882 71.4039 20.4829 69.4211 20.4829 67.3929C20.4679 64.6803 19.3856 62.0829 17.4707 60.1637C15.5558 58.2445 12.9625 57.1582 10.2529 57.1401ZM10.2529 71.9063C9.35796 71.9086 8.48249 71.6449 7.73744 71.1485C6.99238 70.6522 6.41127 69.9456 6.06775 69.1183C5.72423 68.291 5.63375 67.3803 5.80779 66.5014C5.98183 65.6226 6.41255 64.8153 7.04536 64.1818C7.67818 63.5483 8.48461 63.1171 9.36246 62.9429C10.2403 62.7686 11.1501 62.8592 11.9765 63.2031C12.8028 63.547 13.5086 64.1288 14.0044 64.8746C14.5002 65.6205 14.7637 66.4969 14.7614 67.3929C14.7584 68.589 14.2824 69.7352 13.4376 70.581C12.5927 71.4268 11.4477 71.9033 10.2529 71.9063Z" fill="#F8F5E6"/>
<path d="M56.6196 52.6953C53.7049 52.6953 50.8558 53.5612 48.4329 55.1832C46.0101 56.8053 44.1225 59.1106 43.0092 61.8072C41.8959 64.5039 41.607 67.4706 42.1789 70.3318C42.7509 73.1929 44.1581 75.8199 46.2223 77.8799C48.2865 79.94 50.9149 81.3405 53.7746 81.9042C56.6344 82.4679 59.597 82.1694 62.2872 81.0464C64.9774 79.9235 67.2743 78.0267 68.887 75.5962C70.4997 73.1656 71.3557 70.3107 71.3467 67.3928C71.3346 63.4906 69.7776 59.7523 67.0171 56.9973C64.2565 54.2423 60.5175 52.6953 56.6196 52.6953ZM56.6196 79.3066C54.2741 79.3066 51.9812 78.6107 50.0306 77.3069C48.0799 76.0031 46.559 74.1498 45.6598 71.9811C44.7607 69.8124 44.5237 67.4256 44.9788 65.1222C45.4339 62.8188 46.5607 60.702 48.2168 59.0393C49.8729 57.3766 51.984 56.2425 54.2836 55.7802C56.5832 55.318 58.968 55.5483 61.1369 56.4422C63.3058 57.336 65.1614 58.8533 66.4694 60.8023C67.7774 62.7514 68.4792 65.0447 68.4859 67.3928C68.4829 70.5414 67.2314 73.56 65.0063 75.7854C62.7813 78.0107 59.7648 79.2607 56.6196 79.2607V79.3066Z" fill="#F8F5E6"/>
<path d="M56.6196 49.7856C53.1411 49.7856 49.7407 50.8183 46.8484 52.753C43.9561 54.6877 41.7018 57.4376 40.3706 60.6549C39.0394 63.8721 38.6911 67.4124 39.3698 70.8278C40.0484 74.2433 41.7235 77.3806 44.1832 79.843C46.6429 82.3054 49.7767 83.9823 53.1884 84.6617C56.6001 85.3411 60.1364 84.9924 63.3502 83.6597C66.5639 82.3271 69.3108 80.0703 71.2434 77.1749C73.1759 74.2794 74.2074 70.8752 74.2074 67.3928C74.2044 62.724 72.3504 58.2474 69.0527 54.946C65.755 51.6447 61.2833 49.7887 56.6196 49.7856ZM56.6196 79.2608C54.2722 79.2608 51.9775 78.5638 50.0258 77.2579C48.0742 75.9521 46.5533 74.0961 45.6555 71.9248C44.7577 69.7534 44.5233 67.3643 44.9821 65.0596C45.4409 62.7549 46.5722 60.6382 48.2329 58.9773C49.8936 57.3164 52.009 56.1859 54.3116 55.7288C56.6142 55.2718 59.0005 55.5086 61.1686 56.4095C63.3367 57.3104 65.1892 58.8348 66.4917 60.7899C67.7942 62.7449 68.4882 65.0428 68.486 67.3928C68.4829 70.5415 67.2314 73.5601 65.0064 75.7854C62.7813 78.0108 59.7648 79.2608 56.6196 79.2608Z" fill="#F8F5E6"/>
<path d="M46.813 40.8506H20.6315V46.5784H46.813V40.8506Z" fill="#F8F5E6"/>
</g>
<defs>
<clipPath id="clip0">
<rect width="75" height="85" fill="white"/>
</clipPath>
</defs>
</svg>
