<svg width="51" height="61" viewBox="0 0 51 61" fill="none" xmlns="http://www.w3.org/2000/svg">
<rect y="0.767564" width="38.4972" height="38.4972" transform="matrix(0.640973 0.767564 -0.640973 0.767564 26.1756 0.544865)" fill="#F8F5E6" stroke="#3F7E77"/>
<path d="M12.0927 33.244C12.3507 33.25 12.5517 33.202 12.6957 33.1C12.8397 32.998 12.9597 32.758 13.0557 32.38C13.1517 32.002 13.2267 31.405 13.2807 30.589L13.5237 26.71H16.7277V34H15.7107V27.466H14.3967L14.2257 30.589C14.1777 31.405 14.0967 32.053 13.9827 32.533C13.8687 33.013 13.6827 33.379 13.4247 33.631C13.1667 33.883 12.8007 34.009 12.3267 34.009C12.2247 34.009 12.1467 34.006 12.0927 34V33.244ZM19.2212 34.072C18.6692 34.072 18.2762 33.91 18.0422 33.586C17.8142 33.256 17.7002 32.779 17.7002 32.155V30.643C17.7002 30.019 17.8142 29.545 18.0422 29.221C18.2762 28.891 18.6692 28.726 19.2212 28.726C19.7672 28.726 20.1542 28.891 20.3822 29.221C20.6162 29.545 20.7332 30.019 20.7332 30.643V32.155C20.7332 32.779 20.6162 33.256 20.3822 33.586C20.1542 33.91 19.7672 34.072 19.2212 34.072ZM19.2212 33.361C19.3952 33.361 19.5212 33.31 19.5992 33.208C19.6772 33.106 19.7252 32.98 19.7432 32.83C19.7612 32.68 19.7702 32.476 19.7702 32.218V30.589C19.7702 30.331 19.7612 30.127 19.7432 29.977C19.7252 29.821 19.6772 29.692 19.5992 29.59C19.5212 29.488 19.3952 29.437 19.2212 29.437C19.0472 29.437 18.9182 29.488 18.8342 29.59C18.7562 29.692 18.7082 29.821 18.6902 29.977C18.6722 30.127 18.6632 30.331 18.6632 30.589V32.218C18.6632 32.476 18.6722 32.68 18.6902 32.83C18.7082 32.98 18.7562 33.106 18.8342 33.208C18.9182 33.31 19.0472 33.361 19.2212 33.361ZM21.6134 28.798H23.7104V29.491H22.5764V34H21.6134V28.798ZM25.6372 34.072C25.0852 34.072 24.6922 33.91 24.4582 33.586C24.2302 33.256 24.1162 32.779 24.1162 32.155V30.643C24.1162 30.019 24.2302 29.545 24.4582 29.221C24.6922 28.891 25.0852 28.726 25.6372 28.726C26.1832 28.726 26.5702 28.891 26.7982 29.221C27.0322 29.545 27.1492 30.019 27.1492 30.643V32.155C27.1492 32.779 27.0322 33.256 26.7982 33.586C26.5702 33.91 26.1832 34.072 25.6372 34.072ZM25.6372 33.361C25.8112 33.361 25.9372 33.31 26.0152 33.208C26.0932 33.106 26.1412 32.98 26.1592 32.83C26.1772 32.68 26.1862 32.476 26.1862 32.218V30.589C26.1862 30.331 26.1772 30.127 26.1592 29.977C26.1412 29.821 26.0932 29.692 26.0152 29.59C25.9372 29.488 25.8112 29.437 25.6372 29.437C25.4632 29.437 25.3342 29.488 25.2502 29.59C25.1722 29.692 25.1242 29.821 25.1062 29.977C25.0882 30.127 25.0792 30.331 25.0792 30.589V32.218C25.0792 32.476 25.0882 32.68 25.1062 32.83C25.1242 32.98 25.1722 33.106 25.2502 33.208C25.3342 33.31 25.4632 33.361 25.6372 33.361ZM28.5441 29.518H27.5721V28.798H30.4881V29.518H29.5071V34H28.5441V29.518ZM31.0705 28.798H31.8805V32.299L33.4465 28.798H34.2025V34H33.4105V30.472L31.8535 34H31.0705V28.798ZM35.1838 28.798H38.2078V34H37.2448V29.527H36.1468V34H35.1838V28.798Z" fill="#3F7E77"/>
</svg>
