<svg width="53" height="60" viewBox="0 0 53 60" fill="none" xmlns="http://www.w3.org/2000/svg">
<path d="M17.8671 17.9675C18.9584 18.7891 20.2108 19.3705 21.5423 19.6737L12.5118 40.8031C11.4263 39.9601 10.1348 39.424 8.77197 39.2506L17.8671 17.9675Z" fill="#3F7E77"/>
<path d="M36.7522 34.3504C35.4257 34.6281 34.1521 35.1168 32.98 35.7978L26.0093 19.69C27.3349 19.3943 28.5841 18.8241 29.6764 18.0161L36.7522 34.3504Z" fill="#3F7E77"/>
<path d="M23.8605 0C22.007 6.89486e-07 20.1951 0.550336 18.6541 1.58139C17.1131 2.61244 15.9121 4.07788 15.2032 5.79233C14.4942 7.50679 14.3092 9.39322 14.6714 11.213C15.0335 13.0328 15.9267 14.7041 17.2379 16.0156C18.5491 17.3271 20.2194 18.2198 22.0375 18.5809C23.8556 18.9419 25.7398 18.755 27.4517 18.0438C29.1637 17.3326 30.6265 16.1291 31.6551 14.5855C32.6836 13.0418 33.2318 11.2275 33.2302 9.37197C33.2259 6.88628 32.2371 4.50375 30.4807 2.74686C28.7242 0.989967 26.3434 0.0021373 23.8605 0ZM23.8605 14.7089C22.8061 14.7089 21.7754 14.3959 20.8987 13.8095C20.022 13.223 19.3387 12.3895 18.9352 11.4143C18.5317 10.4391 18.4261 9.36605 18.6318 8.33079C18.8375 7.29552 19.3453 6.34457 20.0908 5.59819C20.8364 4.85181 21.7863 4.34352 22.8204 4.13759C23.8546 3.93166 24.9264 4.03735 25.9006 4.44129C26.8747 4.84523 27.7073 5.52928 28.2931 6.40693C28.8789 7.28458 29.1915 8.31643 29.1915 9.37197C29.1894 10.7868 28.627 12.143 27.6277 13.1434C26.6284 14.1438 25.2737 14.7068 23.8605 14.7089Z" fill="#3F7E77"/>
<path d="M7.23732 40.3341C5.80717 40.3325 4.40868 40.7556 3.21877 41.5499C2.02887 42.3441 1.10102 43.4739 0.552618 44.7961C0.00421441 46.1184 -0.140101 47.5738 0.137928 48.9783C0.415957 50.3827 1.10384 51.673 2.11454 52.6859C3.12525 53.6989 4.41336 54.3889 5.81592 54.6688C7.21847 54.9488 8.67244 54.8059 9.99389 54.2584C11.3153 53.7108 12.4449 52.7832 13.2396 51.5929C14.0343 50.4026 14.4585 49.003 14.4585 47.5713C14.4479 45.6566 13.684 43.8231 12.3322 42.4684C10.9805 41.1137 9.14996 40.3468 7.23732 40.3341ZM7.23732 50.7573C6.6056 50.7589 5.98763 50.5727 5.46171 50.2224C4.93579 49.872 4.52559 49.3732 4.28311 48.7893C4.04062 48.2053 3.97676 47.5624 4.09961 46.9421C4.22246 46.3217 4.52649 45.7519 4.97319 45.3047C5.41988 44.8575 5.98913 44.5531 6.60879 44.4301C7.22844 44.3072 7.87063 44.3711 8.45395 44.6138C9.03728 44.8566 9.53549 45.2672 9.88546 45.7937C10.2354 46.3202 10.4214 46.9389 10.4198 47.5713C10.4177 48.4156 10.0817 49.2248 9.48532 49.8218C8.88895 50.4188 8.08071 50.7552 7.23732 50.7573Z" fill="#3F7E77"/>
<path d="M39.9667 35.1428C37.5112 35.1428 35.1109 35.8717 33.0693 37.2374C31.0277 38.6031 29.4364 40.5442 28.4968 42.8152C27.5571 45.0862 27.3113 47.5852 27.7903 49.9961C28.2693 52.407 29.4517 54.6216 31.188 56.3597C32.9243 58.0979 35.1364 59.2816 37.5446 59.7612C39.9529 60.2407 42.4491 59.9946 44.7176 59.0539C46.9862 58.1132 48.9251 56.5202 50.2893 54.4763C51.6535 52.4325 52.3816 50.0295 52.3816 47.5714C52.3794 44.2758 51.0708 41.1158 48.743 38.7854C46.4152 36.4551 43.2586 35.145 39.9667 35.1428ZM39.9667 55.9488C38.3097 55.9488 36.6899 55.4568 35.3122 54.535C33.9346 53.6132 32.861 52.3031 32.2273 50.7704C31.5935 49.2377 31.4281 47.5513 31.752 45.9244C32.0758 44.2976 32.8744 42.8034 34.0466 41.631C35.2189 40.4586 36.7121 39.6606 38.3375 39.338C39.9629 39.0154 41.6473 39.1826 43.1777 39.8185C44.7081 40.4544 46.0158 41.5304 46.9352 42.9105C47.8546 44.2905 48.3445 45.9126 48.3429 47.5714C48.3408 49.794 47.4573 51.9248 45.8867 53.4956C44.3161 55.0664 42.1868 55.9488 39.9667 55.9488Z" fill="#3F7E77"/>
<path d="M33.0445 28.8354H14.5635V32.8786H33.0445V28.8354Z" fill="#3F7E77"/>
</svg>
