<svg width="20" height="20" viewBox="0 0 20 20" fill="none" xmlns="http://www.w3.org/2000/svg">
<path d="M4.98989 8.16406H3.75C3.5943 8.16406 3.44496 8.22605 3.335 8.33633C3.22504 8.4466 3.16356 8.59613 3.16407 8.75188L3.1727 13.2029C3.1727 13.5264 3.43504 13.7888 3.75864 13.7888C4.08223 13.7888 4.34457 13.5264 4.34457 13.2029V11.8514C4.58414 11.8502 4.84008 11.8491 4.98989 11.8491C6.01942 11.8491 6.85703 11.0226 6.85703 10.0066C6.85703 8.99063 6.01942 8.16406 4.98989 8.16406ZM4.98989 10.6773C4.83875 10.6773 4.58188 10.6783 4.34137 10.6796C4.34012 10.4301 4.33903 10.1615 4.33903 10.0066C4.33903 9.87406 4.33836 9.59668 4.33766 9.33594H4.98985C5.36672 9.33594 5.68512 9.64305 5.68512 10.0066C5.68512 10.3702 5.36676 10.6773 4.98989 10.6773Z" fill="#3F7E77"/>
<path d="M9.97383 8.16406H8.75C8.59442 8.16406 8.4452 8.22594 8.33527 8.33605C8.22535 8.44617 8.16375 8.59551 8.16406 8.75109C8.16406 8.75113 8.17277 13.0576 8.17281 13.0732C8.1734 13.2286 8.23567 13.3775 8.34598 13.487C8.45578 13.5959 8.60414 13.657 8.75875 13.657H8.76098C8.79797 13.6569 9.6709 13.6536 10.0199 13.6475C11.3439 13.6243 12.3048 12.4733 12.3048 10.9105C12.3048 9.26781 11.368 8.16406 9.97383 8.16406ZM9.99942 12.4758C9.84766 12.4784 9.58656 12.4806 9.34274 12.4821C9.34109 11.9732 9.33789 9.86484 9.33699 9.33594H9.97383C11.0493 9.33594 11.1329 10.5412 11.1329 10.9106C11.1329 11.6798 10.7824 12.4621 9.99942 12.4758Z" fill="#3F7E77"/>
<path d="M16.1665 9.29101C16.4901 9.29101 16.7525 9.02867 16.7525 8.70508C16.7525 8.38148 16.4901 8.11914 16.1665 8.11914H14.375C14.0514 8.11914 13.7891 8.38148 13.7891 8.70508V13.1253C13.7891 13.4489 14.0514 13.7112 14.375 13.7112C14.6986 13.7112 14.9609 13.4489 14.9609 13.1253V11.4593H16.0242C16.3478 11.4593 16.6102 11.1969 16.6102 10.8734C16.6102 10.5498 16.3478 10.2874 16.0242 10.2874H14.9609V9.29101H16.1665Z" fill="#3F7E77"/>
<path d="M17.8906 5.66406H17.4609V5.49691C17.4609 4.74371 17.1755 4.02789 16.6573 3.48125L14.2236 0.914023C13.6729 0.333164 12.8979 0 12.0975 0H4.29688C3.32762 0 2.53906 0.788555 2.53906 1.75781V5.66406H2.10938C1.14012 5.66406 0.351562 6.45262 0.351562 7.42188V14.4531C0.351562 15.4224 1.14012 16.2109 2.10938 16.2109H2.53906V18.2422C2.53906 19.2114 3.32762 20 4.29688 20H15.7031C16.6724 20 17.4609 19.2114 17.4609 18.2422V16.2109H17.8906C18.8599 16.2109 19.6484 15.4224 19.6484 14.4531V7.42188C19.6484 6.45262 18.8599 5.66406 17.8906 5.66406ZM3.71094 1.75781C3.71094 1.43473 3.97379 1.17188 4.29688 1.17188H12.0975C12.5777 1.17188 13.0427 1.37176 13.3731 1.72031L15.8069 4.28754C16.1179 4.61551 16.2891 5.045 16.2891 5.49691V5.66406H3.71094V1.75781ZM16.2891 18.2422C16.2891 18.5653 16.0262 18.8281 15.7031 18.8281H4.29688C3.97379 18.8281 3.71094 18.5653 3.71094 18.2422V16.2109H16.2891V18.2422ZM18.4766 14.4531C18.4766 14.7762 18.2137 15.0391 17.8906 15.0391H2.10938C1.78629 15.0391 1.52344 14.7762 1.52344 14.4531V7.42188C1.52344 7.09879 1.78629 6.83594 2.10938 6.83594H17.8906C18.2137 6.83594 18.4766 7.09879 18.4766 7.42188V14.4531Z" fill="#3F7E77"/>
</svg>
