<svg width="20" height="20" viewBox="0 0 20 20" fill="none" xmlns="http://www.w3.org/2000/svg">
<g clip-path="url(#clip0)">
<path d="M19.4862 15.5425L16.1724 12.2288C15.4856 11.542 14.374 11.5419 13.6871 12.2288L12.8586 13.0573C12.1733 13.7425 11.0585 13.7424 10.3706 13.0545L6.90099 9.63086C6.21575 8.94562 6.21575 7.83078 6.90099 7.14555L7.72943 6.31711C8.41466 5.63191 8.41466 4.51703 7.72943 3.8318L4.41571 0.518047C3.73048 -0.167187 2.61552 -0.167109 1.9304 0.518047L1.10204 1.34648C0.0267296 2.42176 -0.289521 4.79254 0.27669 7.53355C0.63755 9.28047 1.67571 12.6439 4.57435 15.5425C7.46712 18.4353 10.8033 19.4281 12.5344 19.7624C14.4372 20.1298 17.2969 20.217 18.6577 18.8563L19.4862 18.0278C20.1713 17.3426 20.1713 16.2277 19.4862 15.5425ZM2.75892 1.34648C2.98735 1.11809 3.35892 1.11805 3.58739 1.34648L6.90115 4.66023C7.12958 4.88867 7.12958 5.26027 6.90115 5.48871L6.489 5.90086L2.34673 1.75867L2.75892 1.34648ZM12.7566 18.6121C11.157 18.3032 8.07474 17.3861 5.40279 14.7141C2.71997 12.0312 1.75845 8.91519 1.42407 7.29656C0.981144 5.1525 1.16556 3.54082 1.59564 2.66441L5.70177 6.77059C4.94822 7.9075 5.07204 9.45875 6.07536 10.462L9.54497 13.8857C10.5454 14.8861 12.0958 15.0107 13.2336 14.2566L17.3431 18.3661C16.0908 19.0011 14.1434 18.8798 12.7566 18.6121ZM18.6578 17.1994L18.2456 17.6116L14.1034 13.4694L14.5155 13.0573C14.7444 12.8283 15.115 12.8283 15.344 13.0573L18.6577 16.371C18.8861 16.5994 18.8861 16.971 18.6578 17.1994Z" fill="#3F7E77"/>
<path d="M11.2122 0.00439453C10.8887 0.00439453 10.6265 0.26666 10.6265 0.590176C10.6265 0.913691 10.8887 1.17596 11.2122 1.17596C15.4113 1.17596 18.8275 4.59217 18.8275 8.79123C18.8275 9.11475 19.0898 9.37701 19.4133 9.37701C19.7368 9.37701 19.9991 9.11475 19.9991 8.79123C19.9991 3.94615 16.0573 0.00439453 11.2122 0.00439453Z" fill="#3F7E77"/>
<path d="M11.2122 2.34766C10.8887 2.34766 10.6265 2.60992 10.6265 2.93344C10.6265 3.25695 10.8887 3.51922 11.2122 3.51922C14.1193 3.51922 16.4844 5.8843 16.4844 8.79133C16.4844 9.11484 16.7466 9.37711 17.0701 9.37711C17.3937 9.37711 17.6559 9.11484 17.6559 8.79133C17.6559 5.23828 14.7653 2.34766 11.2122 2.34766Z" fill="#3F7E77"/>
<path d="M11.2122 4.69092C10.8887 4.69092 10.6265 4.95318 10.6265 5.2767C10.6265 5.60021 10.8887 5.86248 11.2122 5.86248C12.8273 5.86248 14.1412 7.17639 14.1412 8.79143C14.1412 9.11494 14.4035 9.37721 14.727 9.37721C15.0505 9.37721 15.3128 9.11494 15.3128 8.79143C15.3128 6.53041 13.4733 4.69092 11.2122 4.69092Z" fill="#3F7E77"/>
<path d="M11.2122 7.03394C10.8887 7.03394 10.6265 7.2962 10.6265 7.61972C10.6265 7.94323 10.8887 8.2055 11.2122 8.2055C11.5353 8.2055 11.798 8.46827 11.798 8.79128C11.798 9.11479 12.0603 9.37706 12.3838 9.37706C12.7073 9.37706 12.9696 9.11479 12.9696 8.79128C12.9696 7.82226 12.1813 7.03394 11.2122 7.03394Z" fill="#3F7E77"/>
</g>
<defs>
<clipPath id="clip0">
<rect width="20" height="20" fill="white"/>
</clipPath>
</defs>
</svg>
