<svg width="94" height="94" viewBox="0 0 94 94" fill="none" xmlns="http://www.w3.org/2000/svg">
<path d="M7.9375 79.8125H11.0625C11.4769 79.8125 11.8743 79.6479 12.1674 79.3549C12.4604 79.0618 12.625 78.6644 12.625 78.25C12.625 77.8356 12.4604 77.4382 12.1674 77.1451C11.8743 76.8521 11.4769 76.6875 11.0625 76.6875H7.9375C7.5231 76.6875 7.12567 76.8521 6.83265 77.1451C6.53962 77.4382 6.375 77.8356 6.375 78.25C6.375 78.6644 6.53962 79.0618 6.83265 79.3549C7.12567 79.6479 7.5231 79.8125 7.9375 79.8125Z" fill="#3F7E77"/>
<path d="M82.9375 79.8125H86.0625C86.4769 79.8125 86.8743 79.6479 87.1674 79.3549C87.4604 79.0618 87.625 78.6644 87.625 78.25C87.625 77.8356 87.4604 77.4382 87.1674 77.1451C86.8743 76.8521 86.4769 76.6875 86.0625 76.6875H82.9375C82.5231 76.6875 82.1257 76.8521 81.8326 77.1451C81.5396 77.4382 81.375 77.8356 81.375 78.25C81.375 78.6644 81.5396 79.0618 81.8326 79.3549C82.1257 79.6479 82.5231 79.8125 82.9375 79.8125Z" fill="#3F7E77"/>
<path d="M7.9375 89.1875H11.0625C11.4769 89.1875 11.8743 89.0229 12.1674 88.7299C12.4604 88.4368 12.625 88.0394 12.625 87.625C12.625 87.2106 12.4604 86.8132 12.1674 86.5201C11.8743 86.2271 11.4769 86.0625 11.0625 86.0625H7.9375C7.5231 86.0625 7.12567 86.2271 6.83265 86.5201C6.53962 86.8132 6.375 87.2106 6.375 87.625C6.375 88.0394 6.53962 88.4368 6.83265 88.7299C7.12567 89.0229 7.5231 89.1875 7.9375 89.1875Z" fill="#3F7E77"/>
<path d="M45.4375 79.8125H48.5625C48.9769 79.8125 49.3743 79.6479 49.6674 79.3549C49.9604 79.0618 50.125 78.6644 50.125 78.25C50.125 77.8356 49.9604 77.4382 49.6674 77.1451C49.3743 76.8521 48.9769 76.6875 48.5625 76.6875H45.4375C45.0231 76.6875 44.6257 76.8521 44.3326 77.1451C44.0396 77.4382 43.875 77.8356 43.875 78.25C43.875 78.6644 44.0396 79.0618 44.3326 79.3549C44.6257 79.6479 45.0231 79.8125 45.4375 79.8125Z" fill="#3F7E77"/>
<path d="M45.4375 89.1875H48.5625C48.9769 89.1875 49.3743 89.0229 49.6674 88.7299C49.9604 88.4368 50.125 88.0394 50.125 87.625C50.125 87.2106 49.9604 86.8132 49.6674 86.5201C49.3743 86.2271 48.9769 86.0625 48.5625 86.0625H45.4375C45.0231 86.0625 44.6257 86.2271 44.3326 86.5201C44.0396 86.8132 43.875 87.2106 43.875 87.625C43.875 88.0394 44.0396 88.4368 44.3326 88.7299C44.6257 89.0229 45.0231 89.1875 45.4375 89.1875Z" fill="#3F7E77"/>
<path d="M82.9375 89.1875H86.0625C86.4769 89.1875 86.8743 89.0229 87.1674 88.7299C87.4604 88.4368 87.625 88.0394 87.625 87.625C87.625 87.2106 87.4604 86.8132 87.1674 86.5201C86.8743 86.2271 86.4769 86.0625 86.0625 86.0625H82.9375C82.5231 86.0625 82.1257 86.2271 81.8326 86.5201C81.5396 86.8132 81.375 87.2106 81.375 87.625C81.375 88.0394 81.5396 88.4368 81.8326 88.7299C82.1257 89.0229 82.5231 89.1875 82.9375 89.1875Z" fill="#3F7E77"/>
<path d="M25.8324 48.6538C25.7578 48.4626 25.6463 48.288 25.5042 48.1399C25.3622 47.9919 25.1924 47.8732 25.0044 47.7908C24.8165 47.7084 24.6142 47.6638 24.4091 47.6595C24.2039 47.6553 23.9999 47.6915 23.8088 47.7661L20.8974 48.902C20.7063 48.9766 20.5317 49.0881 20.3836 49.2302C20.2355 49.3723 20.1169 49.5421 20.0344 49.7301C19.952 49.918 19.9074 50.1203 19.9032 50.3255C19.8989 50.5307 19.9351 50.7347 20.0097 50.9258C20.0843 51.117 20.1959 51.2916 20.3379 51.4397C20.48 51.5878 20.6499 51.7064 20.8378 51.7888C21.0257 51.8713 21.2281 51.9159 21.4332 51.9201C21.6384 51.9244 21.8424 51.8881 22.0336 51.8135L24.9447 50.6774C25.1359 50.6028 25.3105 50.4913 25.4585 50.3493C25.6066 50.2072 25.7252 50.0374 25.8077 49.8494C25.8901 49.6615 25.9347 49.4592 25.939 49.2541C25.9432 49.0489 25.907 48.8449 25.8324 48.6538Z" fill="#3F7E77"/>
<path d="M91.8787 37.6391C92.0808 35.7741 91.5687 33.9018 90.4455 32.3993C89.3223 30.8968 87.6715 29.8758 85.8256 29.5418C84.6168 27.7045 82.9704 26.1962 81.0345 25.1525C79.0986 24.1089 76.9337 23.5625 74.7344 23.5625C72.535 23.5625 70.3702 24.1089 68.4342 25.1525C66.4983 26.1962 64.852 27.7045 63.6432 29.5418C62.7645 29.7013 61.9221 30.0194 61.1574 30.4807L67.2084 14.7484C67.2842 14.5513 67.3193 14.3409 67.3115 14.1299C67.3038 13.9188 67.2533 13.7116 67.1632 13.5206C67.073 13.3296 66.9451 13.1589 66.7872 13.0187C66.6292 12.8785 66.4445 12.7719 66.2441 12.7051L61.5566 11.1426C61.1751 11.0152 60.7591 11.0399 60.3953 11.2116C60.0315 11.3832 59.7479 11.6886 59.6035 12.0641L57.9375 16.3973V1.6875C57.9375 1.2731 57.7729 0.875671 57.4799 0.582646C57.1868 0.28962 56.7894 0.125 56.375 0.125H50.125C49.7106 0.125 49.3132 0.28962 49.0201 0.582646C48.7271 0.875671 48.5625 1.2731 48.5625 1.6875V16.398L46.8959 12.0643C46.7516 11.6887 46.468 11.3833 46.1042 11.2117C45.7404 11.04 45.3244 11.0152 44.9428 11.1426L40.2553 12.7051C40.0549 12.7719 39.8702 12.8785 39.7122 13.0187C39.5543 13.1589 39.4264 13.3296 39.3363 13.5206C39.2461 13.7116 39.1957 13.9188 39.1879 14.1299C39.1801 14.3409 39.2152 14.5513 39.291 14.7484L45.9846 32.1508C46.6572 33.8955 47.0015 35.7496 47.0002 37.6195V39.385C46.48 39.5843 45.9755 39.8227 45.4912 40.098L44.9598 39.035C44.2827 37.669 43.2363 36.52 41.9395 35.7185C40.6426 34.9169 39.147 34.4948 37.6225 34.5H33.9141C33.6477 34.5 33.3858 34.5681 33.1532 34.6978C32.9206 34.8275 32.725 35.0145 32.5849 35.2411C32.4449 35.4677 32.3652 35.7263 32.3532 35.9923C32.3412 36.2584 32.3975 36.5231 32.5166 36.7613L33.8057 39.3395C34.4827 40.7056 35.529 41.8546 36.8259 42.6563C38.1229 43.458 39.6185 43.8802 41.1432 43.875H41.5648C40.9847 44.8101 40.5474 45.8267 40.2676 46.891C39.6553 46.2689 38.9181 45.7836 38.1046 45.4671C37.2911 45.1507 36.4197 45.0102 35.548 45.055C34.6762 45.0998 33.8239 45.3288 33.0471 45.727C32.2703 46.1252 31.5867 46.6834 31.0414 47.365L30.6746 47.8238C30.3129 48.2766 29.9854 48.7556 29.6947 49.2568L28.3037 44.4451C27.6461 42.1822 26.2213 40.2187 24.274 38.8916C25.6385 37.8668 26.6301 36.4235 27.0974 34.7822C27.5646 33.1409 27.4819 31.3918 26.8617 29.802C26.2289 28.2043 25.0903 26.8579 23.62 25.9685C22.1497 25.0792 20.4285 24.6958 18.7197 24.877C17.4295 23.7742 15.8642 23.0423 14.1907 22.7592C12.5172 22.4761 10.7982 22.6525 9.21706 23.2696C7.63591 23.8866 6.25186 24.9212 5.21247 26.263C4.17307 27.6048 3.51729 29.2035 3.31504 30.8887C1.93555 31.9132 0.929356 33.3612 0.45017 35.0114C-0.0290161 36.6616 0.0451464 38.4233 0.661328 40.0273C1.27737 41.6202 2.40018 42.9663 3.85671 43.8582C5.31325 44.75 7.02265 45.138 8.72148 44.9625C8.18845 47.2574 8.47059 49.6663 9.51953 51.776L14.9311 62.625H1.6875C1.2731 62.625 0.875671 62.7896 0.582646 63.0826C0.28962 63.3757 0.125 63.7731 0.125 64.1875V92.3125C0.125 92.7269 0.28962 93.1243 0.582646 93.4174C0.875671 93.7104 1.2731 93.875 1.6875 93.875H92.3125C92.7269 93.875 93.1243 93.7104 93.4174 93.4174C93.7104 93.1243 93.875 92.7269 93.875 92.3125V64.1875C93.875 63.7731 93.7104 63.3757 93.4174 63.0826C93.1243 62.7896 92.7269 62.625 92.3125 62.625H82.5273C82.705 61.5241 83.0711 60.4621 83.6096 59.4855C83.7752 59.4941 83.9416 59.5 84.1088 59.5C85.6473 59.4996 87.162 59.1207 88.5195 58.3967C89.877 57.6726 91.0355 56.6257 91.8928 55.3482C92.7501 54.0708 93.28 52.602 93.4357 51.0714C93.5913 49.5408 93.368 47.9954 92.7853 46.5715C93.6311 45.188 94.0003 43.5656 93.8364 41.9524C93.6726 40.3393 92.9847 38.8242 91.8781 37.6391H91.8787ZM74.8572 60.0121C74.6296 58.9087 74.257 57.8402 73.749 56.8346C74.0855 56.674 74.4148 56.498 74.7344 56.3051C75.117 56.535 75.5129 56.7422 75.9199 56.9254C75.4355 57.9048 75.0784 58.9421 74.8572 60.0121ZM70.727 57.809C71.5631 59.2762 72.0019 60.9362 72 62.625H70.3432C70.1755 61.2576 69.7883 59.9262 69.1967 58.682C69.7331 58.4397 70.2454 58.1474 70.727 57.809ZM66.0959 59.4717C66.6385 60.452 67.0072 61.5189 67.1857 62.625H62.5359C62.3103 61.5598 61.8548 60.5566 61.2012 59.6857L59.5344 57.4625C61.1886 58.783 63.2428 59.5015 65.3594 59.5C65.6068 59.5 65.8523 59.4906 66.0959 59.4717ZM53.0312 61.3555C54.0051 59.7937 54.598 58.0247 54.762 56.1915C54.9259 54.3582 54.6563 52.5121 53.975 50.8023L56.1369 45.4754C56.2888 45.8551 56.4717 46.2217 56.6838 46.5715C55.8731 48.5512 55.7641 50.7487 56.375 52.7988V57.9375C56.375 58.2756 56.4847 58.6045 56.6875 58.875L58.7014 61.5609C58.9453 61.8867 59.1425 62.2449 59.2873 62.6252H52.2365L53.0312 61.3555ZM61.985 14.5795L63.7047 15.1527L57.5984 31.0287C56.9266 32.7753 56.5271 34.6148 56.4141 36.4828L51.957 47.4645L51.8775 47.365C51.3928 46.7588 50.7983 46.2492 50.125 45.8629V43.5049L61.985 14.5795ZM51.6875 24.3438V3.25H54.8125V23.9188C54.8127 24.0672 54.8341 24.2148 54.876 24.3572L53.25 28.5859L51.6799 24.5039C51.6851 24.4507 51.6877 24.3972 51.6875 24.3438ZM42.7953 15.1527L44.5141 14.5795L50.8793 31.1311C51.1262 31.7745 51.3168 32.4381 51.449 33.1145L50.0623 36.1418C49.9233 34.3905 49.5323 32.6685 48.9016 31.0289L42.7953 15.1527ZM47 43.1639V45.0484C45.9623 45.057 44.9436 45.3271 44.0381 45.834C44.7378 44.5865 45.761 43.5508 47 42.8361V43.1639ZM36.6012 37.9428L36.4422 37.625H37.6225C38.5662 37.6218 39.492 37.8831 40.2948 38.3793C41.0976 38.8754 41.7453 39.5867 42.1645 40.4322L42.3234 40.75H41.1432C40.1994 40.7532 39.2736 40.4919 38.4708 39.9957C37.668 39.4996 37.0203 38.7883 36.6012 37.9428ZM33.1146 49.776L33.4816 49.3174C33.7815 48.9426 34.1656 48.6439 34.6026 48.4455C35.0396 48.247 35.5172 48.1544 35.9967 48.1752C36.4763 48.196 36.9441 48.3296 37.3623 48.5652C37.7805 48.8007 38.1372 49.1316 38.4035 49.5309C38.7388 50.0338 39.1931 50.4462 39.7261 50.7315C40.2591 51.0167 40.8542 51.1659 41.4587 51.1659C42.0632 51.1659 42.6583 51.0167 43.1913 50.7315C43.7243 50.4462 44.1786 50.0338 44.5139 49.5309C44.889 48.969 45.4398 48.5473 46.08 48.3317C46.7203 48.1161 47.414 48.1189 48.0525 48.3395C48.0623 48.3428 48.0721 48.3469 48.0818 48.35C48.6147 48.5402 49.0839 48.8753 49.4367 49.3176L49.8035 49.776C50.9143 51.1672 51.5664 52.8687 51.6697 54.646C51.773 56.4233 51.3226 58.1888 50.3805 59.6994L48.5523 62.625H34.3666L32.5379 59.6992C31.5957 58.1887 31.1452 56.4232 31.2485 54.6459C31.3518 52.8686 32.0038 51.1671 33.1146 49.776ZM28.1266 54.5416C28.123 54.5311 28.1199 54.5207 28.1162 54.5102L28.1273 54.5227C28.127 54.5297 28.127 54.5359 28.1266 54.5424V54.5416ZM3.57246 38.8906C3.17046 37.8464 3.15307 36.6931 3.52338 35.6372C3.8937 34.5813 4.62757 33.6916 5.59375 33.1271C5.82494 32.9941 6.01821 32.8041 6.15517 32.5752C6.29213 32.3463 6.36821 32.0862 6.37617 31.8195C6.41203 30.5927 6.80821 29.4036 7.51533 28.4004C8.22244 27.3973 9.2092 26.6244 10.3526 26.1783C11.496 25.7321 12.7454 25.6324 13.945 25.8916C15.1447 26.1507 16.2415 26.7572 17.0988 27.6355C17.2853 27.8262 17.5175 27.966 17.7733 28.0416C18.0291 28.1171 18.3 28.1259 18.5602 28.0672C19.6532 27.8281 20.7958 27.9856 21.7834 28.5116C22.771 29.0376 23.5392 29.8978 23.9508 30.9383C24.2097 31.5954 24.3163 32.3027 24.2625 33.0069C24.2087 33.7111 23.9959 34.394 23.6402 35.0042C23.2845 35.6144 22.7951 36.136 22.2088 36.5298C21.6224 36.9235 20.9545 37.1793 20.2551 37.2777C20.2006 37.2687 20.1465 37.2582 20.092 37.2494C20.4212 35.7131 21.1476 34.2899 22.1986 33.1221C22.3382 32.9702 22.4464 32.7922 22.5169 32.5983C22.5873 32.4045 22.6187 32.1986 22.6092 31.9925C22.5997 31.7864 22.5494 31.5843 22.4614 31.3977C22.3734 31.2112 22.2493 31.0439 22.0962 30.9056C21.9432 30.7672 21.7643 30.6605 21.5699 30.5917C21.3754 30.5228 21.1693 30.4932 20.9633 30.5044C20.7573 30.5156 20.5556 30.5675 20.3698 30.6571C20.184 30.7467 20.0177 30.8722 19.8807 31.0264C18.4078 32.6637 17.4085 34.6711 16.99 36.8332C16.738 36.8559 16.4953 36.9397 16.283 37.0773L14.0811 31.4352C14.0065 31.244 13.895 31.0694 13.7529 30.9213C13.6108 30.7733 13.441 30.6546 13.2531 30.5722C13.0652 30.4898 12.8629 30.4452 12.6577 30.4409C12.4526 30.4367 12.2486 30.4729 12.0574 30.5475C11.8663 30.622 11.6917 30.7336 11.5436 30.8756C11.3955 31.0177 11.2769 31.1875 11.1945 31.3754C11.112 31.5633 11.0674 31.7656 11.0632 31.9708C11.0589 32.176 11.0951 32.3799 11.1697 32.5711L13.3717 38.2133C13.1223 38.256 12.8871 38.3587 12.6861 38.5125C10.9137 37.2057 8.81894 36.406 6.62656 36.1992C6.42222 36.1804 6.21618 36.2021 6.0202 36.263C5.82423 36.3238 5.64216 36.4227 5.48439 36.5539C5.32662 36.6851 5.19624 36.8461 5.1007 37.0277C5.00515 37.2093 4.94631 37.408 4.92754 37.6123C4.90876 37.8166 4.93042 38.0227 4.99128 38.2187C5.05213 38.4146 5.15099 38.5967 5.2822 38.7545C5.41342 38.9122 5.57443 39.0426 5.75603 39.1382C5.93764 39.2337 6.13628 39.2926 6.34063 39.3113C7.90496 39.4585 9.40334 40.0134 10.6861 40.9207C10.6514 40.9639 10.6189 41.0088 10.585 41.0523C10.0037 41.4533 9.33915 41.7173 8.64121 41.8246C7.94327 41.9318 7.2301 41.8795 6.55529 41.6715C5.88048 41.4636 5.26157 41.1054 4.74508 40.6238C4.22859 40.1423 3.82794 39.55 3.57324 38.8914L3.57246 38.8906ZM17.2984 60.3703L19.9391 59.3398C20.1309 59.2658 20.3063 59.1546 20.4551 59.0126C20.6039 58.8706 20.7232 58.7006 20.8061 58.5124C20.8891 58.3242 20.9341 58.1214 20.9385 57.9158C20.9429 57.7102 20.9067 57.5057 20.8319 57.3141C20.7572 57.1225 20.6453 56.9476 20.5028 56.7993C20.3602 56.651 20.1898 56.5323 20.0013 56.4501C19.8128 56.3678 19.6099 56.3236 19.4042 56.3199C19.1986 56.3163 18.9943 56.3532 18.8029 56.4287L15.8979 57.5625L14.4971 54.7539L16.2113 54.085C16.5974 53.9343 16.9078 53.6364 17.0743 53.2569C17.2407 52.8774 17.2496 52.4473 17.0989 52.0612C16.9483 51.6752 16.6504 51.3648 16.2709 51.1983C15.8914 51.0318 15.4613 51.023 15.0752 51.1736L13.0963 51.9459L12.315 50.3805C11.8763 49.5117 11.6257 48.5601 11.5796 47.5879C11.5335 46.6157 11.693 45.6447 12.0477 44.7383C12.242 44.2344 12.4932 43.7543 12.7965 43.3074C13.378 42.8469 13.8903 42.3052 14.3176 41.6988C14.8409 41.3 15.4175 40.9764 16.0305 40.7373H16.0334L16.0365 40.7359C16.6497 40.4966 17.2933 40.3442 17.9486 40.2832C18.6732 40.4396 19.4165 40.4911 20.1557 40.4361C20.6818 40.5593 21.1921 40.7424 21.6766 40.9816C22.5512 41.4082 23.3261 42.0144 23.9506 42.7607C24.5751 43.5071 25.0352 44.3767 25.3008 45.3129L27.7877 53.9152C27.7975 53.9494 27.81 53.982 27.8221 54.015C27.6107 53.7737 27.3301 53.6032 27.0185 53.5269C26.7069 53.4506 26.3793 53.472 26.0803 53.5883L24.6246 54.1564C24.2385 54.3071 23.9281 54.6049 23.7617 54.9844C23.5952 55.3639 23.5863 55.794 23.7369 56.1801C23.8876 56.5661 24.1854 56.8766 24.5649 57.043C24.9444 57.2095 25.3745 57.2184 25.7605 57.0678L27.2162 56.4998C27.4247 56.4185 27.6132 56.2931 27.769 56.1324C27.9247 55.9717 28.044 55.7793 28.1188 55.5684C28.1901 57.6192 28.8 59.615 29.8871 61.3555L30.6805 62.625H18.4232L17.2984 60.3703ZM90.75 81.375H3.25V75.125H90.75V81.375ZM90.75 90.75H3.25V84.5H90.75V90.75ZM90.75 72H3.25V65.75H90.75V72ZM79.3705 62.625H77.7137C77.7125 60.9832 78.1273 59.3679 78.9191 57.9297C79.4102 58.2584 79.9314 58.5396 80.4758 58.7695C79.9072 59.9887 79.5342 61.2898 79.3705 62.625ZM89.7775 45.4236C89.5808 45.6635 89.4599 45.9566 89.4303 46.2654C89.4007 46.5742 89.4637 46.8849 89.6113 47.1578C90.1244 48.1101 90.3816 49.1792 90.3579 50.2606C90.3341 51.342 90.0302 52.3988 89.4757 53.3276C88.9213 54.2564 88.1354 55.0255 87.1948 55.5596C86.2542 56.0937 85.1911 56.3747 84.1094 56.375C82.7196 56.3793 81.3688 55.9155 80.2748 55.0582C80.0551 54.8871 79.7937 54.7778 79.5176 54.7416C78.1224 54.5579 76.7982 54.0175 75.6729 53.1727C75.4022 52.9693 75.0729 52.8594 74.7344 52.8594C74.3959 52.8594 74.0665 52.9693 73.7959 53.1727C72.6705 54.0175 71.3463 54.5579 69.9512 54.7416C69.6751 54.7778 69.4136 54.8871 69.1939 55.0582C68.1 55.9155 66.7492 56.3793 65.3594 56.375C64.2777 56.3747 63.2146 56.0937 62.274 55.5596C61.3334 55.0255 60.5474 54.2564 59.993 53.3276C59.4386 52.3988 59.1346 51.342 59.1109 50.2606C59.0871 49.1792 59.3443 48.1101 59.8574 47.1578C60.005 46.8849 60.068 46.5742 60.0384 46.2654C60.0088 45.9566 59.888 45.6635 59.6912 45.4236C59.1351 44.7452 58.8003 43.9127 58.7318 43.0381C58.6634 42.1636 58.8646 41.2891 59.3084 40.5324L59.3123 40.5258C59.5641 40.0981 59.8879 39.7171 60.2693 39.3996C60.4926 39.2136 60.6596 38.9691 60.7516 38.6934C60.8435 38.4177 60.8568 38.1218 60.7898 37.8391C60.6449 37.2315 60.6343 36.5996 60.7587 35.9874C60.8831 35.3753 61.1396 34.7977 61.5102 34.2948C61.8808 33.792 62.3566 33.3761 62.9045 33.0761C63.4524 32.7761 64.0591 32.5992 64.6824 32.5578C64.9389 32.5409 65.1872 32.4611 65.4054 32.3253C65.6236 32.1895 65.805 32.0019 65.9334 31.7793C66.8234 30.2317 68.1056 28.9461 69.6509 28.0522C71.1962 27.1582 72.9499 26.6875 74.7352 26.6875C76.5204 26.6875 78.2741 27.1582 79.8194 28.0522C81.3647 28.9461 82.647 30.2317 83.5369 31.7793C83.6653 32.0019 83.8467 32.1895 84.0649 32.3253C84.2831 32.4611 84.5314 32.5409 84.7879 32.5578C85.4111 32.5992 86.0179 32.776 86.5658 33.0759C87.1137 33.3759 87.5895 33.7918 87.9601 34.2946C88.3307 34.7974 88.5872 35.375 88.7116 35.9871C88.836 36.5992 88.8254 37.2311 88.6805 37.8387C88.6134 38.1215 88.6267 38.4175 88.7186 38.6932C88.8106 38.969 88.9776 39.2136 89.201 39.3996C89.6862 39.8024 90.0766 40.3074 90.3444 40.8784C90.6121 41.4494 90.7506 42.0725 90.75 42.7031C90.754 43.6958 90.4099 44.6585 89.7775 45.4236Z" fill="#3F7E77"/>
<path d="M74.7344 29.8125C73.442 29.8138 72.1817 30.2149 71.1264 30.961C70.0712 31.707 69.2726 32.7614 68.8404 33.9793C68.7023 34.37 68.7251 34.7996 68.9037 35.1736C69.0824 35.5475 69.4022 35.8351 69.793 35.9732C70.1837 36.1113 70.6133 36.0886 70.9872 35.9099C71.3611 35.7313 71.6488 35.4114 71.7869 35.0207C72.0026 34.4114 72.4019 33.884 72.9297 33.5109C73.4575 33.1379 74.088 32.9375 74.7344 32.9375C75.3807 32.9375 76.0112 33.1379 76.539 33.5109C77.0668 33.884 77.4661 34.4114 77.6818 35.0207C77.7502 35.2142 77.856 35.3923 77.9932 35.5449C78.1304 35.6974 78.2964 35.8215 78.4815 35.9099C78.6667 35.9984 78.8674 36.0495 79.0723 36.0604C79.2772 36.0712 79.4823 36.0416 79.6758 35.9732C79.8692 35.9049 80.0473 35.7991 80.1999 35.6618C80.3525 35.5246 80.4765 35.3587 80.565 35.1736C80.6534 34.9884 80.7046 34.7876 80.7154 34.5827C80.7263 34.3778 80.6967 34.1728 80.6283 33.9793C80.1961 32.7614 79.3975 31.707 78.3423 30.961C77.287 30.2149 76.0267 29.8138 74.7344 29.8125Z" fill="#3F7E77"/>
<path d="M66.9219 40.75C67.3363 40.75 67.7337 40.5854 68.0267 40.2924C68.3198 39.9993 68.4844 39.6019 68.4844 39.1875C68.4844 38.7731 68.3198 38.3757 68.0267 38.0826C67.7337 37.7896 67.3363 37.625 66.9219 37.625C65.6787 37.625 64.4864 38.1189 63.6073 38.9979C62.7282 39.877 62.2344 41.0693 62.2344 42.3125C62.2344 43.5557 62.7282 44.748 63.6073 45.6271C64.4864 46.5061 65.6787 47 66.9219 47C67.3363 47 67.7337 46.8354 68.0267 46.5424C68.3198 46.2493 68.4844 45.8519 68.4844 45.4375C68.4844 45.0231 68.3198 44.6257 68.0267 44.3326C67.7337 44.0396 67.3363 43.875 66.9219 43.875C66.5075 43.875 66.11 43.7104 65.817 43.4174C65.524 43.1243 65.3594 42.7269 65.3594 42.3125C65.3594 41.8981 65.524 41.5007 65.817 41.2076C66.11 40.9146 66.5075 40.75 66.9219 40.75Z" fill="#3F7E77"/>
<path d="M11.0625 67.3125H7.9375C7.5231 67.3125 7.12567 67.4771 6.83265 67.7701C6.53962 68.0632 6.375 68.4606 6.375 68.875C6.375 69.2894 6.53962 69.6868 6.83265 69.9799C7.12567 70.2729 7.5231 70.4375 7.9375 70.4375H11.0625C11.4769 70.4375 11.8743 70.2729 12.1674 69.9799C12.4604 69.6868 12.625 69.2894 12.625 68.875C12.625 68.4606 12.4604 68.0632 12.1674 67.7701C11.8743 67.4771 11.4769 67.3125 11.0625 67.3125Z" fill="#3F7E77"/>
<path d="M82.9375 70.4375H86.0625C86.4769 70.4375 86.8743 70.2729 87.1674 69.9799C87.4604 69.6868 87.625 69.2894 87.625 68.875C87.625 68.4606 87.4604 68.0632 87.1674 67.7701C86.8743 67.4771 86.4769 67.3125 86.0625 67.3125H82.9375C82.5231 67.3125 82.1257 67.4771 81.8326 67.7701C81.5396 68.0632 81.375 68.4606 81.375 68.875C81.375 69.2894 81.5396 69.6868 81.8326 69.9799C82.1257 70.2729 82.5231 70.4375 82.9375 70.4375Z" fill="#3F7E77"/>
<path d="M48.5625 67.3125H45.4375C45.0231 67.3125 44.6257 67.4771 44.3326 67.7701C44.0396 68.0632 43.875 68.4606 43.875 68.875C43.875 69.2894 44.0396 69.6868 44.3326 69.9799C44.6257 70.2729 45.0231 70.4375 45.4375 70.4375H48.5625C48.9769 70.4375 49.3743 70.2729 49.6674 69.9799C49.9604 69.6868 50.125 69.2894 50.125 68.875C50.125 68.4606 49.9604 68.0632 49.6674 67.7701C49.3743 67.4771 48.9769 67.3125 48.5625 67.3125Z" fill="#3F7E77"/>
<path d="M36.9609 59.5001C37.27 59.5001 37.5721 59.4085 37.829 59.2368C38.086 59.0651 38.2863 58.8211 38.4045 58.5355C38.5228 58.25 38.5537 57.9359 38.4934 57.6328C38.4332 57.3296 38.2843 57.0512 38.0658 56.8327C37.8424 56.6098 37.695 56.3222 37.6444 56.0107C37.5939 55.6992 37.6428 55.3797 37.7842 55.0976L38.3584 53.9489C38.5399 53.5787 38.5678 53.1518 38.4359 52.7612C38.304 52.3706 38.0231 52.0479 37.6543 51.8635C37.2856 51.6791 36.8589 51.6479 36.4672 51.7767C36.0756 51.9056 35.7507 52.184 35.5635 52.5513L34.9883 53.6993C34.5529 54.568 34.4024 55.5517 34.558 56.5108C34.7137 57.4698 35.1676 58.3555 35.8552 59.0419C36.0002 59.1874 36.1726 59.3027 36.3623 59.3814C36.5521 59.46 36.7555 59.5004 36.9609 59.5001Z" fill="#3F7E77"/>
</svg>
