<svg width="140" height="140" viewBox="0 0 140 140" fill="none" xmlns="http://www.w3.org/2000/svg">
<path d="M108.364 61.0596C110.345 58.0238 109.979 54.074 107.473 51.4541C106.369 50.2994 105.908 48.6771 106.239 47.1143C106.99 43.5676 105.222 40.0166 101.939 38.4789C100.492 37.8012 99.4754 36.4551 99.2194 34.8781C98.6387 31.2996 95.7071 28.6271 92.0905 28.3791C90.4965 28.2697 89.0623 27.3818 88.2539 26.0037C86.4196 22.877 82.7215 21.4439 79.2586 22.5189C77.7329 22.9928 76.075 22.6826 74.8233 21.6898C71.9832 19.4367 68.0166 19.4367 65.1768 21.6898C63.9252 22.683 62.267 22.9928 60.7414 22.5189C57.2793 21.4438 53.5803 22.8768 51.7461 26.0037C50.9377 27.3818 49.5038 28.2697 47.9098 28.3791C44.293 28.6271 41.3616 31.2998 40.7807 34.8781C40.5248 36.4551 39.5082 37.8012 38.0616 38.4789C34.7788 40.0168 33.0106 43.5678 33.7616 47.1143C34.0926 48.6771 33.6309 50.2996 32.5268 51.4543C30.0213 54.0742 29.6551 58.0242 31.6368 61.06C32.51 62.3977 32.6657 64.0773 32.053 65.5529C30.6629 68.901 31.7487 72.7164 34.6928 74.8312C35.9905 75.7635 36.7422 77.2734 36.7039 78.8705C36.6174 82.4945 39.008 85.6602 42.5174 86.5687C43.5534 86.8369 44.4534 87.4363 45.0983 88.2539L37.0272 107.739C35.8961 110.47 38.4561 113.281 41.2789 112.415L50.1153 109.703C50.3735 109.624 50.652 109.74 50.7784 109.978L55.109 118.144C56.4944 120.756 60.2922 120.571 61.4219 117.844L69.8342 97.535C69.9446 97.5312 70.0549 97.5312 70.1653 97.535L78.5776 117.844C79.7094 120.576 83.5071 120.752 84.8907 118.144L89.2213 109.978C89.3475 109.74 89.6262 109.624 89.8844 109.703L98.7206 112.415C101.545 113.282 104.103 110.468 102.973 107.739L94.9012 88.2541C95.5461 87.4365 96.4461 86.8371 97.4821 86.5689C100.991 85.6605 103.382 82.4949 103.296 78.8707C103.257 77.2736 104.009 75.7637 105.307 74.8316C108.251 72.7166 109.337 68.9012 107.947 65.5531C107.335 64.077 107.49 62.3973 108.364 61.0596ZM58.7159 116.722C58.5321 117.166 57.9215 117.193 57.6975 116.771L53.3668 108.605C52.5834 107.128 50.8547 106.412 49.2565 106.903L40.4202 109.614C39.9618 109.754 39.5506 109.303 39.7342 108.86L46.8948 91.5721C48.5104 93.7852 51.2112 95.0186 54.0543 94.6865C55.6411 94.5016 57.2139 95.1105 58.2618 96.3164C59.7819 98.0664 61.9239 98.9953 64.1092 98.9951C64.8004 98.9951 65.4957 98.8984 66.1774 98.7092L58.7159 116.722ZM99.5805 109.614L90.7444 106.902C89.1461 106.412 87.417 107.128 86.6338 108.605L82.3032 116.771C82.0795 117.193 81.4682 117.165 81.2846 116.722L73.8246 98.7125C76.6604 99.4996 79.7383 98.6188 81.7389 96.316C82.7866 95.11 84.3588 94.5006 85.9463 94.6861C88.7922 95.0188 91.4912 93.785 93.1059 91.5719L100.267 108.859C100.451 109.304 100.037 109.754 99.5805 109.614ZM105.911 59.4584C104.508 61.6074 104.258 64.3055 105.242 66.6758C106.107 68.76 105.431 71.135 103.598 72.4518C101.514 73.949 100.306 76.3746 100.368 78.94C100.422 81.1963 98.9332 83.167 96.7485 83.7324C94.7049 84.2615 92.9889 85.5916 91.9598 87.3902C91.9571 87.3955 91.9541 87.4006 91.9514 87.4057C91.7332 87.7891 91.5442 88.1926 91.392 88.6154C90.6274 90.7387 88.5291 92.0398 86.2864 91.7769C83.7377 91.4789 81.2106 92.458 79.5276 94.3953C78.0477 96.0988 75.6202 96.5525 73.6245 95.4988C72.9457 95.1402 72.227 94.8914 71.493 94.7475C71.487 94.7461 71.4809 94.7447 71.4748 94.7436C70.4998 94.5547 69.4979 94.5549 68.5229 94.7443C68.5194 94.7451 68.5161 94.7459 68.5125 94.7465C67.7768 94.8904 67.0567 95.1396 66.3764 95.4988C64.3807 96.5527 61.9534 96.0988 60.4735 94.3953C58.9895 92.6873 56.8502 91.7244 54.6176 91.7244C54.318 91.7244 54.0163 91.7418 53.7145 91.7771C51.4739 92.0395 49.3733 90.7391 48.6086 88.6156C48.4565 88.1932 48.2678 87.7902 48.0498 87.407C48.0465 87.4008 48.0432 87.3949 48.0399 87.3887C47.0106 85.5908 45.2952 84.2613 43.2522 83.7324C41.0674 83.1668 39.5793 81.1963 39.6332 78.9402C39.6946 76.3746 38.4868 73.9492 36.4024 72.4518C34.5696 71.1352 33.8936 68.76 34.759 66.6756C35.743 64.3053 35.493 61.6072 34.0903 59.4582C32.8569 57.5686 33.0846 55.1096 34.6446 53.4787C36.4182 51.624 37.1598 49.0178 36.6282 46.5072C36.1606 44.2994 37.2614 42.0889 39.3049 41.1314C41.6289 40.0428 43.2618 37.8805 43.6731 35.3473C44.0346 33.1195 45.8596 31.4559 48.111 31.3016C50.6713 31.126 52.9752 29.6996 54.2737 27.4857C55.4157 25.5393 57.7188 24.6475 59.8733 25.3166C62.3243 26.0777 64.9877 25.5799 66.9983 23.9848C68.7659 22.582 71.2354 22.582 73.0036 23.9848C75.0139 25.5797 77.677 26.0779 80.1284 25.3166C82.2836 24.6473 84.5864 25.5395 85.728 27.4857C87.0264 29.6994 89.3303 31.1258 91.8907 31.3016C94.142 31.4561 95.967 33.1197 96.3286 35.3473C96.7399 37.8805 98.3729 40.0428 100.697 41.1316C102.74 42.0889 103.841 44.2994 103.373 46.5072C102.842 49.0178 103.583 51.624 105.357 53.4787C106.916 55.1096 107.144 57.5686 105.911 59.4584Z" fill="#3F7E77" fill-opacity="0.5"/>
<path d="M42.2563 57.5258C43.0584 57.6244 43.7903 57.0537 43.8889 56.251C45.5065 43.1035 56.7321 33.1893 70.0002 33.1893C83.2748 33.1893 94.5008 43.1088 96.1131 56.2633C96.2041 57.0057 96.8358 57.55 97.5651 57.55C97.6246 57.55 97.6846 57.5463 97.7452 57.5389C98.5481 57.4404 99.1192 56.7098 99.0209 55.9068C97.2288 41.2855 84.7526 30.2598 70.0002 30.2598C55.2547 30.2598 42.7793 41.2797 40.9813 55.8932C40.8827 56.6961 41.4534 57.427 42.2563 57.5258Z" fill="#3F7E77" fill-opacity="0.5"/>
<path d="M97.7453 61.4562C96.9447 61.3585 96.2117 61.929 96.1133 62.732C94.5015 75.8871 83.2754 85.8072 70.0002 85.8072C56.731 85.8072 45.5055 75.8919 43.8885 62.7435C43.7898 61.9408 43.0594 61.3703 42.2558 61.4685C41.4531 61.5671 40.882 62.2982 40.9808 63.1011C42.7781 77.7158 55.2535 88.7365 70 88.7365C84.7531 88.7365 97.2293 77.7101 99.0207 63.088C99.1193 62.2853 98.5482 61.5546 97.7453 61.4562Z" fill="#3F7E77" fill-opacity="0.5"/>
<path d="M90.6836 53.4531C90.3113 52.3074 89.2929 51.5391 88.0888 51.4959L76.6043 51.084L72.6634 40.2887C72.2504 39.157 71.205 38.4258 70.0004 38.4258C68.7957 38.4258 67.7504 39.157 67.3373 40.2887L63.3964 51.084L51.9119 51.4959C50.708 51.5391 49.6894 52.3074 49.3171 53.4531C48.9449 54.5988 49.3172 55.8191 50.2658 56.5617L59.3148 63.6455L56.1578 74.6955C55.8267 75.8539 56.2427 77.06 57.2175 77.7682C58.1912 78.4756 59.4668 78.4998 60.467 77.8264L70.0002 71.409L79.5336 77.826C80.5326 78.4986 81.8082 78.476 82.783 77.7678C83.7578 77.0598 84.1736 75.8537 83.8425 74.6951L80.6855 63.6453L89.7345 56.5615C90.6834 55.8189 91.0558 54.5988 90.6836 53.4531ZM78.83 61.3777C77.917 62.0926 77.5328 63.2748 77.8515 64.3893L80.955 75.2516L71.5836 68.9436C71.1025 68.6197 70.5513 68.4578 70.0002 68.4578C69.449 68.4578 68.8978 68.6197 68.417 68.9434L59.0453 75.2514L62.1488 64.3893C62.4673 63.2744 62.0834 62.0926 61.1705 61.3777L52.2748 54.4141L63.5648 54.009C64.7234 53.9674 65.7289 53.2367 66.1263 52.1479L70.0004 41.5357L73.8744 52.1479C74.272 53.2367 75.2773 53.9674 76.4359 54.0088L87.7255 54.4139L78.83 61.3777Z" fill="#3F7E77" fill-opacity="0.5"/>
</svg>
