<svg width="20" height="20" viewBox="0 0 20 20" fill="none" xmlns="http://www.w3.org/2000/svg">
<g clip-path="url(#clip0)">
<path d="M19.7996 18.7904L12.684 11.6747C15.1833 8.61804 14.7314 4.11406 11.6747 1.61477C8.61807 -0.884513 4.11406 -0.432617 1.61477 2.62404C-0.884512 5.6807 -0.432618 10.1847 2.62404 12.684C5.2569 14.8368 9.04186 14.8368 11.6747 12.684L18.7904 19.7997C19.0739 20.0735 19.5258 20.0657 19.7996 19.7821C20.0667 19.5055 20.0667 19.067 19.7996 18.7904ZM7.1608 12.871C4.00862 12.8674 1.45413 10.313 1.45062 7.16081C1.45062 4.00716 4.00716 1.45062 7.1608 1.45062C10.3144 1.45062 12.871 4.00716 12.871 7.16081C12.871 10.3145 10.3144 12.871 7.1608 12.871Z" fill="#3F7E77"/>
</g>
<defs>
<clipPath id="clip0">
<rect width="20" height="20" fill="white"/>
</clipPath>
</defs>
</svg>
