<svg width="68" height="70" viewBox="0 0 68 70" fill="none" xmlns="http://www.w3.org/2000/svg">
<path d="M61.2452 55.3566V45.2685L65.354 41.1939L63.9211 39.7439L60.043 43.5963L52.4952 39.8353V28.8978L42.754 24.0101L34.0211 28.3851L25.2796 24.0101L16.4996 28.3851L8.74521 24.5228V14.8529L16.4698 10.9905L24.1944 14.8529V20.7812H26.2452V13.5851L17.4952 9.21006V0H15.4444V9.21006L7.95648 12.9712L1.93361 6.93123L0.458008 8.38127L6.69457 14.6434V24.7315L2.65412 28.8061L4.12125 30.2561L7.94801 26.4037L15.4446 30.1647V41.1022L25.2541 45.9899L34.0212 41.6149L42.7798 45.9899L51.4999 41.6149L59.1946 45.4772V55.1471L51.47 59.0095L43.7454 55.1471V49.2188H41.6946V56.4149L50.4446 60.7899V70H52.4954V60.7899L60.0517 57.0288L66.1257 63.0688L67.5415 61.6187L61.2452 55.3566ZM32.9444 39.8351L25.2198 43.6974L17.4952 39.8351V30.1651L25.2198 26.3028L32.9444 30.1651V39.8351ZM50.4444 39.8351L42.7198 43.6974L34.9952 39.8351V30.1651L42.7198 26.3028L50.4444 30.1651V39.8351Z" fill="#3F7E77"/>
<path d="M14.3506 22.0117H12.1631V24.0625H14.3506V22.0117Z" fill="#3F7E77"/>
<path d="M49.3506 52.6367H47.1631V54.6875H49.3506V52.6367Z" fill="#3F7E77"/>
<path d="M56.8701 45.9375H54.8193V54.6875H56.8701V45.9375Z" fill="#3F7E77"/>
<path d="M21.8701 30.625H19.8193V39.375H21.8701V30.625Z" fill="#3F7E77"/>
</svg>
