<svg width="30" height="18" viewBox="0 0 30 18" fill="none" xmlns="http://www.w3.org/2000/svg">
<g clip-path="url(#clip0)">
<path d="M29.7326 15.709C29.652 15.5739 29.1532 14.4901 26.753 12.2624C24.2403 9.92977 24.5778 10.3085 27.6043 6.27512C29.4476 3.81869 30.1845 2.31858 29.9539 1.67728C29.7345 1.06599 28.3787 1.22725 28.3787 1.22725L23.8709 1.2535C23.8709 1.2535 23.5371 1.2085 23.2877 1.35663C23.0459 1.50289 22.8902 1.84042 22.8902 1.84042C22.8902 1.84042 22.1758 3.74181 21.2232 5.35818C19.215 8.76906 18.4105 8.94907 18.0824 8.73718C17.3192 8.24402 17.5105 6.75328 17.5105 5.69571C17.5105 2.38984 18.0111 1.01161 16.5335 0.655331C16.0422 0.537197 15.6822 0.458441 14.4277 0.445315C12.8189 0.428439 11.4556 0.450941 10.6849 0.827844C10.1712 1.07911 9.77551 1.63978 10.0174 1.67166C10.3155 1.71104 10.9906 1.85355 11.3487 2.34108C11.8119 2.96925 11.795 4.38311 11.795 4.38311C11.795 4.38311 12.0613 8.27402 11.1744 8.75781C10.5649 9.08971 9.7305 8.41278 7.93975 5.31693C7.02281 3.73243 6.32901 1.97918 6.32901 1.97918C6.32901 1.97918 6.19587 1.65291 5.95773 1.47852C5.66896 1.26663 5.26393 1.19912 5.26393 1.19912L0.977365 1.22537C0.977365 1.22537 0.334193 1.24413 0.097926 1.52352C-0.11209 1.77291 0.0810497 2.2867 0.0810497 2.2867C0.0810497 2.2867 3.43755 10.1379 7.23657 14.0963C10.7225 17.7247 14.679 17.4866 14.679 17.4866H16.4716C16.4716 17.4866 17.0135 17.4266 17.2892 17.1284C17.5442 16.8547 17.5348 16.3409 17.5348 16.3409C17.5348 16.3409 17.4992 13.9351 18.6168 13.5807C19.7175 13.2319 21.1313 15.9058 22.6296 16.9353C23.7622 17.7135 24.6228 17.5428 24.6228 17.5428L28.63 17.4866C28.63 17.4866 30.7264 17.3572 29.7326 15.709Z" fill="#F8F5E6"/>
</g>
<defs>
<clipPath id="clip0">
<rect width="30" height="18" fill="white"/>
</clipPath>
</defs>
</svg>
