<svg width="90" height="90" viewBox="0 0 90 90" fill="none" xmlns="http://www.w3.org/2000/svg">
<g clip-path="url(#clip0)">
<path d="M7.03125 90C7.8079 90 8.4375 89.3704 8.4375 88.5938C8.4375 87.8171 7.8079 87.1875 7.03125 87.1875C6.2546 87.1875 5.625 87.8171 5.625 88.5938C5.625 89.3704 6.2546 90 7.03125 90Z" fill="#3F7E77"/>
<path d="M49.2188 90C49.9954 90 50.625 89.3704 50.625 88.5938C50.625 87.8171 49.9954 87.1875 49.2188 87.1875C48.4421 87.1875 47.8125 87.8171 47.8125 88.5938C47.8125 89.3704 48.4421 90 49.2188 90Z" fill="#3F7E77"/>
<path d="M46.6444 60.4225C46.3312 60.3388 38.9183 58.3945 33.8505 60.1644C32.3622 60.6842 30.8095 61.4195 29.5312 62.4118V57.0431C33.4524 58.8213 41.1006 57.0703 47.4113 48.556C47.5477 48.3716 47.6369 48.1568 47.6712 47.9301C47.7056 47.7034 47.684 47.4717 47.6084 47.2552C47.5328 47.0388 47.4055 46.844 47.2375 46.688C47.0695 46.532 46.8659 46.4194 46.6444 46.36C46.3312 46.2763 38.9183 44.332 33.8505 46.1019C32.3622 46.6217 30.8095 47.357 29.5312 48.3493V43.7275C32.8992 44.5782 38.8163 43.0103 44.1585 36.5714C44.3133 36.3848 44.4172 36.1615 44.4601 35.9229C44.5031 35.6843 44.4837 35.4387 44.4037 35.2099C44.3238 34.9811 44.1861 34.7768 44.0039 34.6168C43.8218 34.4569 43.6014 34.3468 43.3641 34.2972C38.9202 33.3689 33.2989 33.448 29.5312 35.9288V33.4327C31.4374 32.5655 32.237 30.0694 32.218 27.708C32.1911 24.3615 29.3619 20.6416 29.0394 20.2285C28.9049 20.0612 28.7344 19.9265 28.5405 19.8345C28.3466 19.7425 28.1344 19.6956 27.9198 19.6973C27.7052 19.699 27.4937 19.7492 27.3013 19.8443C27.1089 19.9393 26.9405 20.0767 26.8087 20.2461C26.4923 20.6644 23.7239 24.4297 23.7501 27.7758C23.7767 31.0535 25.1175 32.8895 26.7178 33.5091V36.3392C25.7764 35.5971 24.4944 34.8978 22.796 34.3049C18.5036 32.806 12.3354 34.1532 12.0749 34.2114C11.8414 34.2635 11.625 34.3743 11.4462 34.5333C11.2675 34.6924 11.1323 34.8944 11.0534 35.1203C10.9745 35.3462 10.9546 35.5885 10.9955 35.8242C11.0364 36.06 11.1367 36.2814 11.2871 36.4675C17.1406 43.7136 23.6016 44.7744 26.7178 43.3995V48.4489C25.4171 47.4062 23.8108 46.6384 22.2737 46.1019C17.2056 44.3318 9.79328 46.2765 9.47986 46.36C9.25837 46.4193 9.05474 46.5319 8.8867 46.6879C8.71866 46.844 8.5913 47.0387 8.51569 47.2552C8.44009 47.4717 8.41854 47.7034 8.45291 47.9301C8.48729 48.1568 8.57655 48.3717 8.71293 48.556C8.90629 48.8162 13.4963 54.9529 18.5644 56.7228C21.1025 57.6093 24.3652 58.1482 26.7178 56.999V62.5115C25.4171 61.4687 23.8108 60.7009 22.2737 60.1644C17.2056 58.3941 9.79328 60.3388 9.47986 60.4225C9.25837 60.4818 9.05474 60.5944 8.8867 60.7504C8.71866 60.9065 8.5913 61.1012 8.51569 61.3177C8.44009 61.5342 8.41854 61.7659 8.45291 61.9926C8.48729 62.2193 8.57655 62.4342 8.71293 62.6185C15.3307 71.5471 22.9688 72.8338 26.7178 71.0396V78.8109C24.2113 79.0434 21.8127 79.9429 19.7715 81.416C17.7302 82.8891 16.1207 84.882 15.1103 87.1876H12.6562C12.2833 87.1876 11.9256 87.3358 11.6619 87.5995C11.3981 87.8632 11.25 88.2209 11.25 88.5939C11.25 88.9668 11.3981 89.3245 11.6619 89.5882C11.9256 89.852 12.2833 90.0001 12.6562 90.0001H43.5937C43.9667 90.0001 44.3244 89.852 44.5881 89.5882C44.8518 89.3245 45 88.9668 45 88.5939C45 88.2209 44.8518 87.8632 44.5881 87.5995C44.3244 87.3358 43.9667 87.1876 43.5937 87.1876H40.8898C39.8965 84.9208 38.3238 82.9555 36.3298 81.4894C34.3359 80.0233 31.9911 79.1081 29.5312 78.8357V71.1063C33.3594 72.8567 40.8904 71.4165 47.4113 62.6185C47.5477 62.4341 47.6369 62.2193 47.6712 61.9926C47.7056 61.7659 47.684 61.5342 47.6084 61.3177C47.5328 61.1013 47.4055 60.9065 47.2375 60.7505C47.0695 60.5945 46.8659 60.4819 46.6444 60.4225Z" fill="#3F7E77"/>
<path d="M78.7499 47.1305V25.3125H71.7186C71.3457 25.3125 70.988 25.1643 70.7243 24.9006C70.4605 24.6369 70.3124 24.2792 70.3124 23.9062C70.3124 23.5333 70.4605 23.1756 70.7243 22.9119C70.988 22.6482 71.3457 22.5 71.7186 22.5H78.7499V19.6875H68.9061C68.5332 19.6875 68.1755 19.5393 67.9118 19.2756C67.648 19.0119 67.4999 18.6542 67.4999 18.2812C67.4999 17.9083 67.648 17.5506 67.9118 17.2869C68.1755 17.0232 68.5332 16.875 68.9061 16.875H78.7499V14.0625H71.7186C71.3457 14.0625 70.988 13.9143 70.7243 13.6506C70.4605 13.3869 70.3124 13.0292 70.3124 12.6562C70.3124 12.2833 70.4605 11.9256 70.7243 11.6619C70.988 11.3982 71.3457 11.25 71.7186 11.25H78.7499V9.84375C78.7499 7.23303 77.7128 4.72923 75.8667 2.88317C74.0207 1.03711 71.5169 0 68.9061 0C66.2954 0 63.7916 1.03711 61.9455 2.88317C60.0995 4.72923 59.0624 7.23303 59.0624 9.84375V47.1305C57.2843 48.604 55.857 50.4553 54.8843 52.5497C53.9115 54.6442 53.4179 56.9291 53.4391 59.2383C53.5305 67.4771 60.5653 74.3344 68.9061 74.5312C77.3085 74.5312 84.3749 67.4156 84.3749 59.0625C84.3842 56.7804 83.8841 54.525 82.911 52.4607C81.9378 50.3965 80.5163 48.5755 78.7499 47.1305ZM68.9061 68.9062C66.3156 68.911 63.828 67.8926 61.9845 66.0726C60.141 64.2526 59.0908 61.7782 59.0624 59.1878C59.0049 54.5261 62.0753 51.6705 64.6874 49.8714V28.125H73.1249V49.8217C76.0312 51.6823 78.7499 55.1048 78.7499 59.0625C78.7469 61.6723 77.7088 64.1743 75.8634 66.0197C74.018 67.8652 71.5159 68.9032 68.9061 68.9062Z" fill="#3F7E77"/>
<path d="M68.9062 60.4688C69.6829 60.4688 70.3125 59.8392 70.3125 59.0625C70.3125 58.2858 69.6829 57.6562 68.9062 57.6562C68.1296 57.6562 67.5 58.2858 67.5 59.0625C67.5 59.8392 68.1296 60.4688 68.9062 60.4688Z" fill="#3F7E77"/>
</g>
<defs>
<clipPath id="clip0">
<rect width="90" height="90" fill="white"/>
</clipPath>
</defs>
</svg>
