<svg width="90" height="90" viewBox="0 0 90 90" fill="none" xmlns="http://www.w3.org/2000/svg">
<g clip-path="url(#clip0)">
<path d="M83.4374 30H6.56256C2.96256 30 0 32.9626 0 36.5626V83.4375C0 87.0375 2.96256 90.0001 6.56256 90.0001H83.4376C87.0376 90.0001 90.0002 87.0375 90.0002 83.4375V36.5626C90 32.9626 87.0374 30 83.4374 30ZM78.75 47.8126V72.1875C78.75 75.7875 75.825 78.7501 72.1874 78.7501H51.5626C47.925 78.7501 45 75.7875 45 72.1875V47.8126C45 44.2126 47.925 41.25 51.5626 41.25H72.1876C75.825 41.25 78.75 44.2126 78.75 47.8126ZM34.6876 61.8751H14.0625C12.5251 61.8751 11.25 60.6 11.25 59.0626C11.25 57.5251 12.5251 56.2501 14.0625 56.2501H34.6876C36.225 56.2501 37.5001 57.5251 37.5001 59.0626C37.5001 60.6 36.225 61.8751 34.6876 61.8751ZM37.5001 70.3126C37.5001 71.85 36.225 73.1251 34.6876 73.1251H14.0625C12.5251 73.1251 11.25 71.85 11.25 70.3126C11.25 68.7751 12.5251 67.5001 14.0625 67.5001H34.6876C36.225 67.5001 37.5001 68.7751 37.5001 70.3126ZM34.6876 50.6251H14.0625C12.5251 50.6251 11.25 49.35 11.25 47.8126C11.25 46.2751 12.5251 45.0001 14.0625 45.0001H34.6876C36.225 45.0001 37.5001 46.2751 37.5001 47.8126C37.5001 49.35 36.225 50.6251 34.6876 50.6251Z" fill="#3F7E77"/>
<path d="M83.4374 0H6.56256C2.94378 0 0 2.94378 0 6.56256V15.9376C0 19.5562 2.94378 22.5 6.56256 22.5H83.4376C87.0562 22.5 90 19.5562 90 15.9374V6.56256C90 2.94378 87.0562 0 83.4374 0Z" fill="#3F7E77"/>
</g>
<defs>
<clipPath id="clip0">
<rect width="90" height="90" fill="white"/>
</clipPath>
</defs>
</svg>
