<svg width="90" height="90" viewBox="0 0 90 90" fill="none" xmlns="http://www.w3.org/2000/svg">
<g clip-path="url(#clip0)">
<path d="M87.3633 73.8295H10.5469V67.0111L14.7843 62.7737C17.9891 64.3029 21.4942 63.5247 23.7665 61.2485L29.3412 55.6738C32.438 52.577 32.428 47.5725 29.3439 44.4883C26.3595 41.5039 21.1453 41.4988 18.1559 44.4883L12.581 50.0604C10.3279 52.3135 9.51574 55.8179 11.0558 59.0452L6.046 64.055C5.55152 64.5495 5.27344 65.219 5.27344 65.9193V73.8295H2.63672C1.17932 73.8295 0 75.0088 0 76.4662V87.3647C0 88.8221 1.17932 90.0014 2.63672 90.0014H87.3633C88.8207 90.0014 90 88.8221 90 87.3647V76.4662C90 75.0088 88.8207 73.8295 87.3633 73.8295Z" fill="#3F7E77"/>
<path d="M82.0898 0H7.91016C3.54832 0 0 3.54832 0 7.91016V29.0039C0 33.3657 3.54832 36.9141 7.91016 36.9141H36.9141V44.8242C36.9141 46.9447 39.2792 48.1743 41.0133 47.018L56.3451 36.9141H82.0898C86.4517 36.9141 90 33.3657 90 29.0039V7.91016C90 3.54832 86.4517 0 82.0898 0ZM55.5469 26.3672H13.1836C11.7262 26.3672 10.5469 25.1879 10.5469 23.7305C10.5469 22.2731 11.7262 21.0938 13.1836 21.0938H55.5469C57.0043 21.0938 58.1836 22.2731 58.1836 23.7305C58.1836 25.1879 57.0043 26.3672 55.5469 26.3672ZM76.8164 15.8203H13.1836C11.7262 15.8203 10.5469 14.641 10.5469 13.1836C10.5469 11.7262 11.7262 10.5469 13.1836 10.5469H76.8164C78.2738 10.5469 79.4531 11.7262 79.4531 13.1836C79.4531 14.641 78.2738 15.8203 76.8164 15.8203Z" fill="#3F7E77"/>
</g>
<defs>
<clipPath id="clip0">
<rect width="90" height="90" fill="white"/>
</clipPath>
</defs>
</svg>
