<svg width="90" height="90" viewBox="0 0 90 90" fill="none" xmlns="http://www.w3.org/2000/svg">
<path d="M52.9691 51.4743C54.0846 52.4103 55.7479 52.2648 56.6839 51.1493L61.2034 45.763C62.1395 44.6475 61.9939 42.9844 60.8784 42.0484L58.8585 40.3535L50.9492 49.7794L52.9691 51.4743Z" fill="#3F7E77"/>
<path d="M4.45746 14.9416C5.57297 15.8776 7.23621 15.7321 8.17224 14.6166L8.5326 14.1871L12.5722 17.5769L20.4815 8.15097L16.4419 4.76121L16.8022 4.3316C17.7383 3.21609 17.5927 1.55285 16.4772 0.61699C15.3619 -0.319045 13.6986 -0.173674 12.7626 0.941833L4.13261 11.2268C3.19658 12.3425 3.34195 14.0055 4.45746 14.9416Z" fill="#3F7E77"/>
<path d="M78.5742 75.9375H11.4258C5.11541 75.9375 0 81.0529 0 87.3633C0 88.8195 1.18055 90 2.63672 90H87.3633C88.8195 90 90 88.8195 90 87.3633C90 81.0529 84.8844 75.9375 78.5742 75.9375Z" fill="#3F7E77"/>
<path d="M16.0235 28.5031L17.3666 29.6302C19.7869 26.7762 23.3952 24.9599 27.4216 24.9599C34.6911 24.9599 40.6052 30.874 40.6052 38.1434C40.6052 41.3446 39.4574 44.2822 37.553 46.5685L39.5883 48.2764C41.4476 49.8364 44.2195 49.5938 45.7795 47.7346L55.9486 35.6155C57.5087 33.7563 57.2661 30.9844 55.4069 29.4243L31.8422 9.65124C29.9829 8.09118 27.2111 8.33376 25.651 10.193L15.4819 22.3121C13.9218 24.1711 14.1642 26.943 16.0235 28.5031Z" fill="#3F7E77"/>
<path d="M40.9189 64.6246L41.685 65.3906H74.883C76.3392 65.3906 77.5198 64.2101 77.5198 62.7539C77.5198 61.2977 76.3392 60.1172 74.883 60.1172H37.6255C38.4817 61.769 39.5883 63.2937 40.9189 64.6246Z" fill="#3F7E77"/>
<path d="M16.1838 45.0293C14.8888 48.3194 14.2087 51.837 14.188 55.4551C14.157 60.8737 15.6092 66.0853 18.4064 70.6642H39.5001L37.1897 68.3535C32.5582 63.7221 30.1168 57.4112 30.2837 51.0117C29.3616 51.2166 28.4046 51.3282 27.4217 51.3282C22.6738 51.3282 18.5053 48.8047 16.1838 45.0293Z" fill="#3F7E77"/>
<path d="M27.4219 46.0547C31.7905 46.0547 35.332 42.5132 35.332 38.1445C35.332 33.7759 31.7905 30.2344 27.4219 30.2344C23.0532 30.2344 19.5117 33.7759 19.5117 38.1445C19.5117 42.5132 23.0532 46.0547 27.4219 46.0547Z" fill="#3F7E77"/>
</svg>
