<svg width="90" height="90" viewBox="0 0 90 90" fill="none" xmlns="http://www.w3.org/2000/svg">
<g clip-path="url(#clip0)">
<path d="M88.1249 86.2502H86.2499V31.8751C86.2499 30.8401 85.4098 30 84.3748 30H73.1248C72.0898 30 71.2498 30.8401 71.2498 31.8751V86.25H63.7497V54.3751C63.7497 53.3401 62.9096 52.5 61.8746 52.5H50.6246C49.5896 52.5 48.7496 53.3401 48.7496 54.3751V86.25H41.2495V46.875C41.2495 45.84 40.4095 44.9999 39.3745 44.9999H28.1245C27.0895 44.9999 26.2494 45.84 26.2494 46.875V86.25H18.7494V65.6251C18.7494 64.5901 17.9093 63.75 16.8743 63.75H5.625C4.59 63.75 3.74994 64.5901 3.74994 65.6251V86.25H1.87506C0.840059 86.2502 0 87.0901 0 88.1251C0 89.1601 0.840059 90.0001 1.87506 90.0001H5.625H16.875H28.125H39.375H50.625H61.875H73.125H84.375H88.1249C89.1599 90.0001 90 89.1601 90 88.1251C90 87.0901 89.1599 86.2502 88.1249 86.2502Z" fill="#3F7E77"/>
<path d="M78.7501 0C74.6138 0 71.25 3.36375 71.25 7.50006C71.25 8.8875 71.655 10.17 72.3112 11.2876L60.0374 23.5614C58.92 22.905 57.6375 22.5 56.2501 22.5C53.8988 22.5 51.8213 23.6101 50.4451 25.3088L41.2313 22.68C41.2313 22.6201 41.2501 22.5638 41.2501 22.5C41.2501 18.3637 37.8864 14.9999 33.7501 14.9999C29.6138 14.9999 26.25 18.3637 26.25 22.5C26.25 23.5912 26.4938 24.6187 26.9138 25.5524L15.1949 34.9012C14.0476 34.1812 12.7013 33.75 11.2501 33.75C7.11375 33.75 3.75 37.1138 3.75 41.2501C3.75 45.3864 7.11375 48.7501 11.2501 48.7501C15.3864 48.7501 18.7501 45.3864 18.7501 41.2501C18.7501 39.9338 18.3789 38.7113 17.7789 37.6351L29.2652 28.4739C30.5215 29.4189 32.0627 30.0002 33.7502 30.0002C36.4989 30.0002 38.8839 28.4964 40.1889 26.284L48.8776 28.7627C48.8064 29.1677 48.7502 29.5764 48.7502 30.0002C48.7502 34.1365 52.1139 37.5003 56.2502 37.5003C60.3865 37.5003 63.7503 34.1365 63.7503 30.0002C63.7503 28.6128 63.3453 27.3303 62.6891 26.2127L74.9666 13.9352C76.0803 14.5953 77.3628 15.0003 78.7502 15.0003C82.8866 15.0003 86.2503 11.6365 86.2503 7.50023C86.2501 3.36375 82.8864 0 78.7501 0Z" fill="#3F7E77"/>
</g>
<defs>
<clipPath id="clip0">
<rect width="90" height="90" fill="white"/>
</clipPath>
</defs>
</svg>
