<svg width="90" height="90" viewBox="0 0 90 90" fill="none" xmlns="http://www.w3.org/2000/svg">
<path d="M44.9999 0C20.1472 0 0 20.1472 0 44.9999C0 69.8527 20.1472 89.9998 44.9999 89.9998C69.8527 89.9998 89.9998 69.8527 89.9998 44.9999C89.9734 20.1583 69.8417 0.0265555 44.9999 0ZM63.9511 46.4337C63.6396 47.0586 63.1332 47.5652 62.5081 47.8768V47.8928L36.7939 60.75C35.2058 61.5434 33.2754 60.8995 32.4817 59.3114C32.2561 58.86 32.1399 58.3617 32.1427 57.8571V32.1429C32.142 30.3676 33.5803 28.928 35.3555 28.927C35.8548 28.9269 36.3473 29.0429 36.7939 29.2661L62.5081 42.1232C64.0969 42.915 64.7431 44.8449 63.9511 46.4337Z" fill="#3F7E77"/>
</svg>
