<svg width="90" height="90" viewBox="0 0 90 90" fill="none" xmlns="http://www.w3.org/2000/svg">
<g clip-path="url(#clip0)">
<path d="M13.7675 10.6191C13.7651 10.6191 13.7623 10.6191 13.7599 10.6191C12.9087 10.6191 12.1081 10.951 11.5035 11.554C10.8923 12.1637 10.5557 12.9755 10.5557 13.8398V62.1323C10.5557 63.9033 12.002 65.3475 13.7802 65.3521C21.2766 65.3699 33.8361 66.9324 42.5003 75.9994V25.4598C42.5003 24.8595 42.347 24.2956 42.0576 23.8289C34.9464 12.3767 21.2809 10.6367 13.7675 10.6191Z" fill="#3F7E77"/>
<path d="M79.4448 62.1326V13.8398C79.4448 12.9755 79.1082 12.1637 78.497 11.554C77.8924 10.951 77.0912 10.6191 76.2409 10.6191C76.2382 10.6191 76.2354 10.6191 76.233 10.6191C68.7199 10.637 55.0545 12.377 47.9429 23.8292C47.6535 24.2959 47.5005 24.8598 47.5005 25.4601V75.9994C56.1648 66.9324 68.7242 65.3699 76.2206 65.352C77.9985 65.3475 79.4448 63.9033 79.4448 62.1326Z" fill="#3F7E77"/>
<path d="M86.7799 21.7559H84.4448V62.1321C84.4448 66.6536 80.7608 70.3406 76.2323 70.3518C69.8738 70.3669 59.3895 71.6103 51.9644 78.6379C64.8062 75.4936 78.3438 77.5376 86.059 79.2958C87.0224 79.5152 88.0178 79.2885 88.7896 78.6733C89.5587 78.0597 89.9999 77.1424 89.9999 76.1579V24.9759C90.0002 23.2004 88.5554 21.7559 86.7799 21.7559Z" fill="#3F7E77"/>
<path d="M5.55517 62.1321V21.7559H3.22001C1.44485 21.7559 0 23.2004 0 24.9759V76.157C0 77.1418 0.441214 78.0588 1.21031 78.6724C1.98152 79.2873 2.97607 79.5148 3.94092 79.2948C11.6561 77.5364 25.194 75.4927 38.0353 78.637C30.6104 71.6097 20.1261 70.3666 13.7676 70.3515C9.23942 70.3406 5.55517 66.6536 5.55517 62.1321Z" fill="#3F7E77"/>
</g>
<defs>
<clipPath id="clip0">
<rect width="90" height="90" fill="white"/>
</clipPath>
</defs>
</svg>
