<svg width="90" height="90" viewBox="0 0 90 90" fill="none" xmlns="http://www.w3.org/2000/svg">
<g clip-path="url(#clip0)">
<path d="M29.2383 46.4938C32.2953 46.4938 35.1822 47.2328 37.7324 48.539C40.0828 46.1334 41.5353 42.847 41.5353 39.2263V31.4532C41.5353 30.1395 40.4702 29.0742 39.1562 29.0742H35.921C31.3856 29.0742 27.3743 31.3516 24.9638 34.821C22.5533 31.3516 18.542 29.0742 14.0067 29.0742H10.7716C9.45781 29.0742 8.39258 30.1395 8.39258 31.4532V39.2263C8.39258 42.8922 9.87986 46.2169 12.2823 48.6301C14.9062 47.266 17.8849 46.4938 21.0411 46.4938H29.2383Z" fill="#3F7E77"/>
<path d="M42.7714 63.8031C42.0729 56.9526 36.27 51.5898 29.2382 51.5898H21.041C13.9363 51.5898 8.05887 56.928 7.19824 63.8031H42.7714Z" fill="#3F7E77"/>
<path d="M68.9588 51.5913H67.6727V46.1042L75.2876 41.7029C76.5485 40.9741 76.9796 39.3615 76.251 38.1007C75.5222 36.84 73.9095 36.4086 72.6487 37.1374L67.6726 40.0135V33.9854C75.415 33.5289 81.5747 27.088 81.5747 19.233V15.35C81.5747 13.8938 80.3942 12.7133 78.938 12.7133C76.6799 12.7133 74.5393 13.2241 72.6233 14.1334C73.8038 7.5562 67.3758 1.00343 66.7775 0.653445C65.7829 -0.217727 64.297 -0.217903 63.3023 0.653445C62.6468 1.06425 56.2876 7.55989 57.457 14.1371C55.5387 13.2253 53.3953 12.7133 51.1338 12.7133C49.6777 12.7133 48.4971 13.8938 48.4971 15.35V19.233C48.4971 27.088 54.6568 33.5291 62.3993 33.9854V51.5913H61.1133C54.0086 51.5913 48.1311 56.9295 47.2705 63.8046H82.8015C81.9409 56.9295 76.0635 51.5913 68.9588 51.5913Z" fill="#3F7E77"/>
<path d="M87.3633 68.9023H2.63672C1.18055 68.9023 0 70.0829 0 71.5391V87.3632C0 88.8194 1.18055 90 2.63672 90H87.3633C88.8195 90 90 88.8194 90 87.3632V71.5392C90 70.0829 88.8195 68.9023 87.3633 68.9023ZM13.1836 82.44C11.7274 82.44 10.5469 81.2592 10.5469 79.8027C10.6857 76.3045 15.682 76.3055 15.8203 79.8027C15.8203 81.2592 14.6398 82.44 13.1836 82.44ZM76.8164 82.44C75.3602 82.44 74.1797 81.2592 74.1797 79.8027C74.3186 76.3045 79.3148 76.3055 79.4531 79.8027C79.4531 81.2592 78.2726 82.44 76.8164 82.44Z" fill="#3F7E77"/>
</g>
<defs>
<clipPath id="clip0">
<rect width="90" height="90" fill="white"/>
</clipPath>
</defs>
</svg>
