<svg width="90" height="90" viewBox="0 0 90 90" fill="none" xmlns="http://www.w3.org/2000/svg">
<g clip-path="url(#clip0)">
<path d="M52.5 90H11.25C7.11375 90 3.75 86.6362 3.75 82.5V75C3.75 70.8637 7.11375 67.5 11.25 67.5H52.5C56.6363 67.5 60 70.8637 60 75V82.5C60 86.6362 56.6363 90 52.5 90ZM11.25 75V82.5H52.5038L52.5 75H11.25Z" fill="#3F7E77"/>
<path d="M75 82.5H58.125C56.055 82.5 54.375 80.82 54.375 78.75C54.375 76.68 56.055 75 58.125 75H75C77.0662 75 78.75 73.3163 78.75 71.25V18.75C78.75 16.6838 77.0662 15 75 15H58.125C56.055 15 54.375 13.32 54.375 11.25C54.375 9.18 56.055 7.5 58.125 7.5H75C81.2025 7.5 86.25 12.5475 86.25 18.75V71.25C86.25 77.4525 81.2025 82.5 75 82.5Z" fill="#3F7E77"/>
<path d="M82.5 48.75H58.125C56.055 48.75 54.375 47.07 54.375 45C54.375 42.93 56.055 41.25 58.125 41.25H82.5C84.57 41.25 86.25 42.93 86.25 45C86.25 47.07 84.57 48.75 82.5 48.75Z" fill="#3F7E77"/>
<path d="M53.4375 33.75H10.3125C6.69375 33.75 3.75 36.6938 3.75 40.3125V49.6875C3.75 53.3062 6.69375 56.25 10.3125 56.25H53.4375C57.0563 56.25 60 53.3062 60 49.6875V40.3125C60 36.6938 57.0563 33.75 53.4375 33.75Z" fill="#3F7E77"/>
<path d="M52.5 22.5H11.25C7.11375 22.5 3.75 19.1362 3.75 15V7.5C3.75 3.36375 7.11375 0 11.25 0H52.5C56.6363 0 60 3.36375 60 7.5V15C60 19.1362 56.6363 22.5 52.5 22.5ZM11.25 7.5V15H52.5038L52.5 7.5H11.25Z" fill="#3F7E77"/>
</g>
<defs>
<clipPath id="clip0">
<rect width="90" height="90" fill="white"/>
</clipPath>
</defs>
</svg>
